<svg width="15" height="14" viewBox="0 0 15 14" fill="none" xmlns="http://www.w3.org/2000/svg">
<circle cx="7.61547" cy="6.76" r="6.76" fill="#ADD9F7"/>
<g clip-path="url(#clip0_758_5118)">
<path d="M8.80929 4.90942C8.94418 4.90942 9.05256 4.79802 9.05256 4.66616V4.03306C9.05256 3.89817 8.94418 3.78979 8.80929 3.78979C8.67439 3.78979 8.56602 3.89817 8.56602 4.03306V4.66616C8.56602 4.79802 8.67455 4.90942 8.80929 4.90942ZM7.10946 5.47507C7.20616 5.57177 7.3644 5.56874 7.45534 5.47507C7.54613 5.3811 7.54901 5.22878 7.45534 5.13496L7.00397 4.68374C6.98152 4.66109 6.95481 4.64311 6.92537 4.63084C6.89594 4.61857 6.86436 4.61225 6.83247 4.61225C6.80058 4.61225 6.769 4.61857 6.73957 4.63084C6.71013 4.64311 6.68342 4.66109 6.66097 4.68374C6.56715 4.77453 6.56715 4.92989 6.66097 5.02659L7.10946 5.47507ZM10.1635 5.47507C10.2543 5.56874 10.4126 5.57177 10.5091 5.47507L10.9578 5.02659C11.0514 4.92989 11.0485 4.77453 10.9578 4.68374C10.9353 4.66109 10.9086 4.64311 10.8792 4.63084C10.8497 4.61857 10.8182 4.61225 10.7863 4.61225C10.7544 4.61225 10.7228 4.61857 10.6934 4.63084C10.6639 4.64311 10.6372 4.66109 10.6148 4.68374L10.1634 5.13496C10.0696 5.22893 10.0725 5.38125 10.1634 5.47507M9.56243 8.08355C9.99318 7.7933 10.2599 7.34496 10.2599 6.82903C10.2608 6.63814 10.2239 6.44897 10.1513 6.27242C10.0787 6.09587 9.9719 5.93542 9.83705 5.80032C9.7022 5.66521 9.54195 5.55812 9.36554 5.48521C9.18912 5.4123 9.00003 5.37501 8.80914 5.37549C8.27865 5.37549 7.81849 5.65968 7.57538 6.08468C7.69845 6.21063 7.80394 6.34841 7.89185 6.51846C8.85885 6.59758 9.48331 7.1984 9.56243 8.08355ZM4.57131 9.69835H7.74256C8.57193 9.69835 9.2167 9.07116 9.2167 8.25937C9.2167 7.45045 8.56026 6.8407 7.6839 6.83494C7.3409 6.18138 6.7313 5.80034 6.02211 5.80034C5.06951 5.80034 4.2606 6.54181 4.17269 7.5032C3.67448 7.65264 3.35498 8.07461 3.35498 8.59054C3.35498 9.24698 3.8503 9.6985 4.57131 9.6985M10.9666 7.07244H11.5995C11.7314 7.07244 11.8399 6.96407 11.8428 6.82918C11.8428 6.69428 11.7314 6.58591 11.5995 6.58591H10.9664C10.8345 6.58591 10.7231 6.69443 10.7231 6.82918C10.7231 6.96407 10.8345 7.07244 10.9664 7.07244M10.6148 8.98053C10.6608 9.02516 10.7226 9.04986 10.7867 9.04929C10.8509 9.04872 10.9122 9.02293 10.9575 8.9775C11.0484 8.88383 11.0514 8.72847 10.9575 8.63753L10.5032 8.18616C10.4095 8.09537 10.2571 8.09249 10.1632 8.18616C10.1181 8.23242 10.0929 8.29448 10.0929 8.3591C10.0929 8.42372 10.1181 8.48578 10.1632 8.53204L10.6148 8.98053Z" fill="#223F7A"/>
</g>
<defs>
<clipPath id="clip0_758_5118">
<rect width="9.14025" height="9.14025" fill="white" transform="translate(3.04541 2.18988)"/>
</clipPath>
</defs>
</svg>
