<svg width="14" height="14" viewBox="0 0 14 14" fill="none" xmlns="http://www.w3.org/2000/svg">
<circle cx="6.82514" cy="7.01643" r="5.91475" fill="white" stroke="#223F7A" stroke-width="1.68993"/>
<g clip-path="url(#clip0_758_5145)">
<path d="M8.01876 4.90942C8.15366 4.90942 8.26203 4.79802 8.26203 4.66616V4.03306C8.26203 3.89817 8.15366 3.78979 8.01876 3.78979C7.88387 3.78979 7.7755 3.89817 7.7755 4.03306V4.66616C7.7755 4.79802 7.88402 4.90942 8.01876 4.90942ZM6.31893 5.47507C6.41563 5.57177 6.57387 5.56874 6.66481 5.47507C6.7556 5.3811 6.75848 5.22878 6.66481 5.13496L6.21344 4.68374C6.19099 4.66109 6.16428 4.64311 6.13484 4.63084C6.10541 4.61857 6.07383 4.61225 6.04194 4.61225C6.01005 4.61225 5.97848 4.61857 5.94904 4.63084C5.91961 4.64311 5.89289 4.66109 5.87044 4.68374C5.77662 4.77453 5.77662 4.92989 5.87044 5.02659L6.31893 5.47507ZM9.37302 5.47507C9.46381 5.56874 9.62204 5.57177 9.71859 5.47507L10.1672 5.02659C10.2609 4.92989 10.258 4.77453 10.1672 4.68374C10.1448 4.66109 10.1181 4.64311 10.0886 4.63084C10.0592 4.61857 10.0276 4.61225 9.99573 4.61225C9.96384 4.61225 9.93227 4.61857 9.90283 4.63084C9.8734 4.64311 9.84668 4.66109 9.82423 4.68374L9.37287 5.13496C9.27905 5.22893 9.28193 5.38125 9.37287 5.47507M8.7719 8.08355C9.20266 7.7933 9.46942 7.34496 9.46942 6.82903C9.47026 6.63814 9.43332 6.44897 9.36074 6.27242C9.28817 6.09587 9.18138 5.93542 9.04652 5.80032C8.91167 5.66521 8.75143 5.55812 8.57501 5.48521C8.3986 5.4123 8.2095 5.37501 8.01861 5.37549C7.48812 5.37549 7.02797 5.65968 6.78485 6.08468C6.90792 6.21063 7.01342 6.34841 7.10132 6.51846C8.06833 6.59758 8.69278 7.1984 8.7719 8.08355ZM3.78078 9.69835H6.95203C7.78141 9.69835 8.42618 9.07116 8.42618 8.25937C8.42618 7.45045 7.76974 6.8407 6.89337 6.83494C6.55038 6.18138 5.94077 5.80034 5.23159 5.80034C4.27899 5.80034 3.47007 6.54181 3.38216 7.5032C2.88396 7.65264 2.56445 8.07461 2.56445 8.59054C2.56445 9.24698 3.05978 9.6985 3.78078 9.6985M10.176 7.07244H10.809C10.9408 7.07244 11.0494 6.96407 11.0522 6.82918C11.0522 6.69428 10.9408 6.58591 10.809 6.58591H10.1759C10.044 6.58591 9.93261 6.69443 9.93261 6.82918C9.93261 6.96407 10.044 7.07244 10.1759 7.07244M9.82423 8.98053C9.87029 9.02516 9.93207 9.04986 9.9962 9.04929C10.0603 9.04872 10.1217 9.02293 10.1669 8.9775C10.2579 8.88383 10.2609 8.72847 10.1669 8.63753L9.71268 8.18616C9.61901 8.09537 9.46654 8.09249 9.37271 8.18616C9.32759 8.23242 9.30233 8.29448 9.30233 8.3591C9.30233 8.42372 9.32759 8.48578 9.37271 8.53204L9.82423 8.98053Z" fill="#223F7A"/>
</g>
<defs>
<clipPath id="clip0_758_5145">
<rect width="9.14025" height="9.14025" fill="white" transform="translate(2.25488 2.18988)"/>
</clipPath>
</defs>
</svg>
