<svg width="829" height="112" viewBox="0 0 829 112" fill="none" xmlns="http://www.w3.org/2000/svg">
<path d="M3.50293 79.6534C10.1573 79.6534 25.296 77.9878 32.6158 71.3253C41.7655 62.9973 93.9813 3.03539 160.712 3.0354C200.802 3.03541 232.81 9.7736 289.946 66.9789C294.105 71.143 316.103 94.3121 336.794 101.209C386.839 117.981 470.549 103.295 503.742 81.0459" stroke="#E0E0E0" stroke-width="5.91475" stroke-linecap="round"/>
<path d="M504.351 80.6549C513.348 76.1916 532.19 62.7035 539.51 56.041C548.659 47.713 595.609 3.03539 662.34 3.0354C702.43 3.03541 734.437 9.7736 791.573 66.9789C795.732 71.1429 806.241 78.8206 825.372 79.6534" stroke="#E0E0E0" stroke-width="5.91475" stroke-linecap="round"/>
</svg>
