<svg width="15" height="14" viewBox="0 0 15 14" fill="none" xmlns="http://www.w3.org/2000/svg">
<circle cx="7.61567" cy="7.01643" r="6.75971" fill="#ADD9F7"/>
<g clip-path="url(#clip0_758_5098)">
<path d="M7.49603 6.17697C7.82593 6.17693 8.15003 6.26373 8.43575 6.42865C8.72147 6.59357 8.95875 6.8308 9.12372 7.11649C9.28869 7.40218 9.37555 7.72627 9.37556 8.05618C9.37557 8.38608 9.28874 8.71017 9.12379 8.99588H10.0017C10.0848 8.99588 10.1645 9.02887 10.2232 9.08761C10.2819 9.14635 10.3149 9.22602 10.3149 9.30909C10.3149 9.39216 10.2819 9.47182 10.2232 9.53056C10.1645 9.5893 10.0848 9.6223 10.0017 9.6223H4.99033C4.90726 9.6223 4.8276 9.5893 4.76886 9.53056C4.71012 9.47182 4.67712 9.39216 4.67712 9.30909C4.67712 9.22602 4.71012 9.14635 4.76886 9.08761C4.8276 9.02887 4.90726 8.99588 4.99033 8.99588H5.86827C5.70331 8.71017 5.61648 8.38608 5.61649 8.05618C5.6165 7.72627 5.70336 7.40218 5.86833 7.11649C6.0333 6.8308 6.27058 6.59357 6.5563 6.42865C6.84202 6.26373 7.16612 6.17693 7.49603 6.17697ZM10.3149 7.74303C10.3948 7.74312 10.4715 7.77369 10.5296 7.82849C10.5876 7.88329 10.6226 7.95819 10.6273 8.03789C10.6319 8.11758 10.606 8.19605 10.5548 8.25727C10.5035 8.31849 10.4308 8.35783 10.3516 8.36726L10.3149 8.36945H10.0017C9.92189 8.36936 9.8451 8.3388 9.78705 8.28399C9.729 8.22919 9.69407 8.15429 9.68939 8.0746C9.68471 7.9949 9.71064 7.91643 9.76188 7.85521C9.81312 7.79399 9.8858 7.75465 9.96507 7.74522L10.0017 7.74303H10.3149ZM4.99033 7.74303C5.07016 7.74312 5.14695 7.77369 5.205 7.82849C5.26305 7.88329 5.29798 7.95819 5.30266 8.03789C5.30734 8.11758 5.28141 8.19605 5.23017 8.25727C5.17893 8.31849 5.10625 8.35783 5.02698 8.36726L4.99033 8.36945H4.67712C4.59729 8.36936 4.52051 8.3388 4.46246 8.28399C4.40441 8.22919 4.36948 8.15429 4.3648 8.0746C4.36012 7.9949 4.38605 7.91643 4.43729 7.85521C4.48852 7.79399 4.5612 7.75465 4.64048 7.74522L4.67712 7.74303H4.99033ZM5.72419 5.84152L5.94563 6.06296C6.00268 6.12204 6.03425 6.20115 6.03354 6.28328C6.03283 6.3654 5.99989 6.44396 5.94181 6.50203C5.88374 6.5601 5.80518 6.59304 5.72306 6.59376C5.64094 6.59447 5.56182 6.5629 5.50275 6.50584L5.28131 6.2844C5.22425 6.22533 5.19268 6.14621 5.1934 6.06409C5.19411 5.98197 5.22705 5.90341 5.28512 5.84534C5.34319 5.78727 5.42175 5.75433 5.50387 5.75361C5.586 5.7529 5.66512 5.78447 5.72419 5.84152ZM9.26786 5.84152C9.32423 5.78535 9.39986 5.75274 9.4794 5.75031C9.55894 5.74788 9.63642 5.77582 9.69611 5.82845C9.7558 5.88108 9.79321 5.95445 9.80076 6.03367C9.80831 6.11289 9.78542 6.19201 9.73674 6.25496L9.71074 6.2844L9.4893 6.50584C9.43294 6.56202 9.35731 6.59463 9.27777 6.59706C9.19823 6.59949 9.12074 6.57155 9.06106 6.51892C9.00137 6.46629 8.96395 6.39292 8.95641 6.3137C8.94886 6.23448 8.97175 6.15536 9.02043 6.09241L9.04642 6.06296L9.26786 5.84152ZM7.71747 3.72547L8.38179 4.38979C8.4117 4.41868 8.43556 4.45324 8.45198 4.49146C8.46839 4.52967 8.47703 4.57077 8.4774 4.61236C8.47776 4.65394 8.46983 4.69519 8.45408 4.73368C8.43833 4.77217 8.41508 4.80714 8.38567 4.83655C8.35626 4.86596 8.32129 4.88922 8.2828 4.90497C8.24431 4.92071 8.20306 4.92864 8.16147 4.92828C8.11989 4.92792 8.07879 4.91928 8.04057 4.90286C8.00236 4.88645 7.9678 4.86258 7.93891 4.83267L7.80924 4.703V5.55055C7.80924 5.63362 7.77624 5.71329 7.7175 5.77202C7.65876 5.83076 7.57909 5.86376 7.49603 5.86376C7.41296 5.86376 7.33329 5.83076 7.27455 5.77202C7.21581 5.71329 7.18281 5.63362 7.18281 5.55055V4.703L7.05314 4.83267C6.99407 4.88972 6.91495 4.92129 6.83283 4.92058C6.75071 4.91987 6.67215 4.88693 6.61408 4.82885C6.55601 4.77078 6.52307 4.69222 6.52235 4.6101C6.52164 4.52798 6.55321 4.44886 6.61026 4.38979L7.27427 3.72547C7.30336 3.69635 7.3379 3.67324 7.37593 3.65748C7.41395 3.64172 7.45471 3.63361 7.49587 3.63361C7.53703 3.63361 7.57779 3.64172 7.61581 3.65748C7.65383 3.67324 7.68838 3.69635 7.71747 3.72547Z" fill="#223F7A"/>
</g>
<defs>
<clipPath id="clip0_758_5098">
<rect width="6.75971" height="6.75971" fill="white" transform="translate(4.11621 3.24811)"/>
</clipPath>
</defs>
</svg>
