<svg width="14" height="15" viewBox="0 0 14 15" fill="none" xmlns="http://www.w3.org/2000/svg">
<circle cx="6.82514" cy="7.70295" r="5.91475" fill="white" stroke="#223F7A" stroke-width="1.68993"/>
<g clip-path="url(#clip0_758_5170)">
<path d="M6.7055 6.8635C7.0354 6.86345 7.3595 6.95025 7.64523 7.11517C7.93095 7.28009 8.16822 7.51732 8.33319 7.80302C8.49816 8.08871 8.58502 8.4128 8.58503 8.7427C8.58504 9.0726 8.49821 9.39669 8.33326 9.6824H9.21119C9.29426 9.6824 9.37393 9.7154 9.43266 9.77414C9.4914 9.83288 9.5244 9.91254 9.5244 9.99561C9.5244 10.0787 9.4914 10.1583 9.43266 10.2171C9.37393 10.2758 9.29426 10.3088 9.21119 10.3088H4.19981C4.11674 10.3088 4.03707 10.2758 3.97833 10.2171C3.91959 10.1583 3.88659 10.0787 3.88659 9.99561C3.88659 9.91254 3.91959 9.83288 3.97833 9.77414C4.03707 9.7154 4.11674 9.6824 4.19981 9.6824H5.07774C4.91279 9.39669 4.82595 9.0726 4.82596 8.7427C4.82598 8.4128 4.91283 8.08871 5.0778 7.80302C5.24278 7.51732 5.48005 7.28009 5.76577 7.11517C6.05149 6.95025 6.3756 6.86345 6.7055 6.8635ZM9.5244 8.42955C9.60423 8.42964 9.68102 8.46021 9.73907 8.51501C9.79712 8.56981 9.83205 8.64471 9.83673 8.72441C9.84141 8.8041 9.81548 8.88258 9.76424 8.94379C9.713 9.00501 9.64032 9.04436 9.56105 9.05378L9.5244 9.05598H9.21119C9.13136 9.05589 9.05457 9.02532 8.99652 8.97052C8.93848 8.91571 8.90354 8.84081 8.89886 8.76112C8.89419 8.68143 8.92011 8.60295 8.97135 8.54174C9.02259 8.48052 9.09527 8.44117 9.17454 8.43175L9.21119 8.42955H9.5244ZM4.19981 8.42955C4.27964 8.42964 4.35642 8.46021 4.41447 8.51501C4.47252 8.56981 4.50745 8.64471 4.51213 8.72441C4.51681 8.8041 4.49088 8.88258 4.43964 8.94379C4.38841 9.00501 4.31572 9.04436 4.23645 9.05378L4.19981 9.05598H3.88659C3.80676 9.05589 3.72998 9.02532 3.67193 8.97052C3.61388 8.91571 3.57895 8.84081 3.57427 8.76112C3.56959 8.68143 3.59552 8.60295 3.64676 8.54174C3.698 8.48052 3.77068 8.44117 3.84995 8.43175L3.88659 8.42955H4.19981ZM4.93366 6.52805L5.1551 6.74949C5.21216 6.80856 5.24373 6.88768 5.24301 6.9698C5.2423 7.05192 5.20936 7.13048 5.15129 7.18855C5.09321 7.24662 5.01466 7.27956 4.93253 7.28028C4.85041 7.28099 4.77129 7.24942 4.71222 7.19237L4.49078 6.97093C4.43373 6.91186 4.40216 6.83274 4.40287 6.75061C4.40358 6.66849 4.43652 6.58993 4.4946 6.53186C4.55267 6.47379 4.63122 6.44085 4.71335 6.44014C4.79547 6.43942 4.87459 6.47099 4.93366 6.52805ZM8.47734 6.52805C8.5337 6.47187 8.60933 6.43926 8.68887 6.43683C8.76841 6.4344 8.8459 6.46234 8.90558 6.51497C8.96527 6.5676 9.00269 6.64098 9.01023 6.72019C9.01778 6.79941 8.99489 6.87853 8.94621 6.94149L8.92022 6.97093L8.69878 7.19237C8.64241 7.24854 8.56678 7.28116 8.48724 7.28358C8.4077 7.28601 8.33022 7.25808 8.27053 7.20545C8.21084 7.15282 8.17342 7.07944 8.16588 7.00022C8.15833 6.921 8.18122 6.84188 8.2299 6.77893L8.2559 6.74949L8.47734 6.52805ZM6.92694 4.41199L7.59126 5.07631C7.62117 5.1052 7.64504 5.13977 7.66145 5.17798C7.67787 5.21619 7.68651 5.25729 7.68687 5.29888C7.68723 5.34047 7.6793 5.38171 7.66356 5.4202C7.64781 5.4587 7.62455 5.49367 7.59514 5.52307C7.56573 5.55248 7.53076 5.57574 7.49227 5.59149C7.45378 5.60724 7.41253 5.61516 7.37095 5.6148C7.32936 5.61444 7.28826 5.6058 7.25005 5.58938C7.21183 5.57297 7.17727 5.54911 7.14838 5.51919L7.01871 5.38952V6.23707C7.01871 6.32014 6.98571 6.39981 6.92697 6.45855C6.86823 6.51729 6.78857 6.55028 6.7055 6.55028C6.62243 6.55028 6.54276 6.51729 6.48402 6.45855C6.42529 6.39981 6.39229 6.32014 6.39229 6.23707V5.38952L6.26262 5.51919C6.20354 5.57625 6.12443 5.60782 6.0423 5.6071C5.96018 5.60639 5.88162 5.57345 5.82355 5.51538C5.76548 5.45731 5.73254 5.37875 5.73183 5.29662C5.73111 5.2145 5.76268 5.13538 5.81974 5.07631L6.48374 4.41199C6.51283 4.38287 6.54738 4.35977 6.5854 4.344C6.62342 4.32824 6.66418 4.32013 6.70534 4.32013C6.7465 4.32013 6.78726 4.32824 6.82528 4.344C6.86331 4.35977 6.89785 4.38287 6.92694 4.41199Z" fill="#223F7A"/>
</g>
<defs>
<clipPath id="clip0_758_5170">
<rect width="6.75971" height="6.75971" fill="white" transform="translate(3.32568 3.93463)"/>
</clipPath>
</defs>
</svg>
