<svg width="14" height="14" viewBox="0 0 14 14" fill="none" xmlns="http://www.w3.org/2000/svg">
<circle cx="6.82514" cy="7.01643" r="5.91475" fill="white" stroke="#223F7A" stroke-width="1.68993"/>
<g clip-path="url(#clip0_758_5139)">
<path d="M6.79184 10.2746C6.34665 10.2746 5.92933 10.1898 5.53989 10.0202C5.15045 9.8506 4.81125 9.62143 4.5223 9.33269C4.23335 9.04374 4.00407 8.70455 3.83448 8.31511C3.66488 7.92567 3.58008 7.50824 3.58008 7.06284C3.58008 6.28905 3.82653 5.60673 4.31942 5.01589C4.81231 4.42506 5.44036 4.05798 6.20355 3.91467C6.10815 4.43937 6.1373 4.95219 6.291 5.45314C6.44469 5.95409 6.70969 6.39261 7.08599 6.76869C7.46228 7.14499 7.90091 7.40998 8.40186 7.56368C8.90281 7.71738 9.41552 7.74653 9.94 7.65113C9.80221 8.41432 9.43651 9.04236 8.84292 9.53526C8.24932 10.0282 7.56563 10.2746 6.79184 10.2746Z" fill="#223F7A"/>
</g>
<defs>
<clipPath id="clip0_758_5139">
<rect width="6.75971" height="6.75971" fill="white" transform="translate(3.38037 3.71484)"/>
</clipPath>
</defs>
</svg>
