<svg width="15" height="14" viewBox="0 0 15 14" fill="none" xmlns="http://www.w3.org/2000/svg">
<circle cx="7.61567" cy="7.09467" r="6.75971" fill="#ADD9F7"/>
<g clip-path="url(#clip0_758_5102)">
<path d="M7.64731 10.2746C7.20212 10.2746 6.7848 10.1898 6.39536 10.0202C6.00592 9.8506 5.66672 9.62143 5.37777 9.33269C5.08882 9.04374 4.85954 8.70455 4.68994 8.31511C4.52035 7.92567 4.43555 7.50824 4.43555 7.06284C4.43555 6.28905 4.68199 5.60673 5.17489 5.01589C5.66778 4.42506 6.29583 4.05798 7.05902 3.91467C6.96362 4.43937 6.99277 4.95219 7.14647 5.45314C7.30016 5.95409 7.56516 6.39261 7.94146 6.76869C8.31775 7.14499 8.75637 7.40998 9.25733 7.56368C9.75828 7.71738 10.271 7.74653 10.7955 7.65113C10.6577 8.41432 10.292 9.04236 9.69839 9.53526C9.10479 10.0282 8.4211 10.2746 7.64731 10.2746Z" fill="#223F7A"/>
</g>
<defs>
<clipPath id="clip0_758_5102">
<rect width="6.75971" height="6.75971" fill="white" transform="translate(4.23584 3.71484)"/>
</clipPath>
</defs>
</svg>
