<svg width="14" height="14" viewBox="0 0 14 14" fill="none" xmlns="http://www.w3.org/2000/svg">
<circle cx="6.82514" cy="7.01643" r="5.91475" fill="white" stroke="#223F7A" stroke-width="1.68993"/>
<g clip-path="url(#clip0_758_5177)">
<path d="M6.82529 5.91922C7.15804 5.9192 7.48519 6.00397 7.77527 6.16537C8.06536 6.32677 8.30861 6.55937 8.48163 6.8408C8.65464 7.12223 8.7516 7.44301 8.76317 7.77228C8.77475 8.10155 8.70054 8.42823 8.5477 8.72088L8.50472 8.79896H9.41052C9.49289 8.79905 9.57211 8.83028 9.632 8.88626C9.69189 8.94225 9.72793 9.01876 9.73276 9.10018C9.73759 9.18159 9.71084 9.26176 9.65797 9.3243C9.60511 9.38683 9.53012 9.42703 9.44833 9.43666L9.41052 9.4389H4.24006C4.15769 9.43881 4.07847 9.40758 4.01858 9.3516C3.95869 9.29561 3.92264 9.21909 3.91782 9.13768C3.91299 9.05627 3.93974 8.9761 3.99261 8.91356C4.04547 8.85102 4.12046 8.81083 4.20225 8.8012L4.24006 8.79896H5.14586C4.97567 8.50709 4.88608 8.176 4.88609 7.83898C4.8861 7.50196 4.97572 7.17087 5.14593 6.87902C5.31613 6.58716 5.56094 6.34481 5.85573 6.17633C6.15052 6.00785 6.48491 5.91917 6.82529 5.91922ZM9.73367 7.51907C9.81938 7.51907 9.90158 7.55279 9.96218 7.61279C10.0228 7.6728 10.0568 7.75418 10.0568 7.83905C10.0568 7.92391 10.0228 8.00529 9.96218 8.0653C9.90158 8.1253 9.81938 8.15902 9.73367 8.15902H9.41052C9.32481 8.15902 9.24262 8.1253 9.18202 8.0653C9.12141 8.00529 9.08737 7.92391 9.08737 7.83905C9.08737 7.75418 9.12141 7.6728 9.18202 7.61279C9.24262 7.55279 9.32481 7.51907 9.41052 7.51907H9.73367ZM4.24006 7.51907C4.32576 7.51907 4.40796 7.55279 4.46856 7.61279C4.52917 7.6728 4.56321 7.75418 4.56321 7.83905C4.56321 7.92391 4.52917 8.00529 4.46856 8.0653C4.40796 8.1253 4.32576 8.15902 4.24006 8.15902H3.9169C3.8312 8.15902 3.749 8.1253 3.6884 8.0653C3.6278 8.00529 3.59375 7.92391 3.59375 7.83905C3.59375 7.75418 3.6278 7.6728 3.6884 7.61279C3.749 7.55279 3.8312 7.51907 3.9169 7.51907H4.24006ZM4.54027 5.57653C4.59591 5.52144 4.66995 5.48835 4.74848 5.48346C4.82702 5.47857 4.90465 5.50222 4.96683 5.54998L4.99721 5.57653L5.22568 5.80275C5.28363 5.86033 5.31728 5.9376 5.31979 6.01886C5.32229 6.10011 5.29347 6.17927 5.23917 6.24024C5.18487 6.30122 5.10916 6.33944 5.02743 6.34715C4.9457 6.35486 4.86407 6.33148 4.79911 6.28175L4.76874 6.25519L4.54027 6.02897C4.47969 5.96897 4.44565 5.8876 4.44565 5.80275C4.44565 5.71791 4.47969 5.63654 4.54027 5.57653ZM9.11031 5.57653C9.17089 5.63654 9.20493 5.71791 9.20493 5.80275C9.20493 5.8876 9.17089 5.96897 9.11031 6.02897L8.88184 6.25519C8.82089 6.31348 8.73926 6.34573 8.65453 6.345C8.5698 6.34427 8.48875 6.31062 8.42884 6.25129C8.36892 6.19197 8.33494 6.11172 8.3342 6.02782C8.33346 5.94392 8.36604 5.8631 8.4249 5.80275L8.65337 5.57653C8.71397 5.51655 8.79615 5.48285 8.88184 5.48285C8.96753 5.48285 9.04971 5.51655 9.11031 5.57653ZM6.82529 3.32074C6.91099 3.32074 6.99319 3.35445 7.05379 3.41446C7.1144 3.47446 7.14844 3.55585 7.14844 3.64071V4.50687L7.28223 4.37408C7.34287 4.31409 7.42509 4.2804 7.51081 4.28043C7.55326 4.28044 7.59529 4.28873 7.63449 4.30483C7.6737 4.32093 7.70933 4.34451 7.73933 4.37424C7.76933 4.40397 7.79313 4.43926 7.80936 4.47809C7.82559 4.51693 7.83393 4.55855 7.83392 4.60058C7.8339 4.6426 7.82553 4.68422 7.80927 4.72304C7.79301 4.76186 7.76919 4.79713 7.73917 4.82684L7.05408 5.5055C7.02407 5.53525 6.98843 5.55885 6.9492 5.57495C6.90997 5.59105 6.86792 5.59934 6.82545 5.59934C6.78298 5.59934 6.74093 5.59105 6.7017 5.57495C6.66247 5.55885 6.62683 5.53525 6.59682 5.5055L5.91141 4.82684C5.85077 4.76684 5.81669 4.68545 5.81666 4.60058C5.81663 4.5157 5.85065 4.43428 5.91125 4.37424C5.97184 4.3142 6.05404 4.28046 6.13977 4.28043C6.22549 4.2804 6.30771 4.31409 6.36835 4.37408L6.50213 4.50687V3.64103C6.50213 3.55617 6.53618 3.47478 6.59678 3.41478C6.65739 3.35477 6.73958 3.32106 6.82529 3.32106V3.32074Z" fill="#223F7A"/>
</g>
<defs>
<clipPath id="clip0_758_5177">
<rect width="6.75971" height="6.75971" fill="white" transform="translate(3.44531 3)"/>
</clipPath>
</defs>
</svg>
