<svg width="15" height="14" viewBox="0 0 15 14" fill="none" xmlns="http://www.w3.org/2000/svg">
<circle cx="7.61567" cy="7.05525" r="6.75971" fill="#ADD9F7"/>
<g clip-path="url(#clip0_758_5112)">
<path d="M7.61582 6.59464C7.94856 6.59461 8.27572 6.67938 8.5658 6.84078C8.85588 7.00219 9.09914 7.23479 9.27215 7.51622C9.44517 7.79765 9.54213 8.11843 9.5537 8.4477C9.56527 8.77697 9.49107 9.10364 9.33823 9.3963L9.29525 9.47437H10.201C10.2834 9.47446 10.3626 9.50569 10.4225 9.56168C10.4824 9.61766 10.5185 9.69418 10.5233 9.77559C10.5281 9.857 10.5014 9.93717 10.4485 9.99971C10.3956 10.0622 10.3206 10.1024 10.2389 10.1121L10.201 10.1143H5.03059C4.94822 10.1142 4.869 10.083 4.80911 10.027C4.74921 9.97103 4.71317 9.89451 4.70835 9.81309C4.70352 9.73168 4.73027 9.65151 4.78313 9.58898C4.836 9.52644 4.91099 9.48624 4.99278 9.47661L5.03059 9.47437H5.93639C5.7662 9.1825 5.67661 8.85141 5.67662 8.51439C5.67663 8.17737 5.76625 7.84629 5.93645 7.55443C6.10666 7.26257 6.35147 7.02022 6.64626 6.85174C6.94105 6.68326 7.27544 6.59459 7.61582 6.59464ZM10.5242 8.19449C10.6099 8.19449 10.6921 8.2282 10.7527 8.28821C10.8133 8.34821 10.8474 8.4296 10.8474 8.51446C10.8474 8.59932 10.8133 8.68071 10.7527 8.74071C10.6921 8.80072 10.6099 8.83443 10.5242 8.83443H10.201C10.1153 8.83443 10.0331 8.80072 9.97254 8.74071C9.91194 8.68071 9.87789 8.59932 9.87789 8.51446C9.87789 8.4296 9.91194 8.34821 9.97254 8.28821C10.0331 8.2282 10.1153 8.19449 10.201 8.19449H10.5242ZM5.03059 8.19449C5.11629 8.19449 5.19849 8.2282 5.25909 8.28821C5.31969 8.34821 5.35374 8.4296 5.35374 8.51446C5.35374 8.59932 5.31969 8.68071 5.25909 8.74071C5.19849 8.80072 5.11629 8.83443 5.03059 8.83443H4.70743C4.62173 8.83443 4.53953 8.80072 4.47893 8.74071C4.41832 8.68071 4.38428 8.59932 4.38428 8.51446C4.38428 8.4296 4.41832 8.34821 4.47893 8.28821C4.53953 8.2282 4.62173 8.19449 4.70743 8.19449H5.03059ZM5.3308 6.25195C5.38644 6.19686 5.46047 6.16376 5.53901 6.15887C5.61754 6.15398 5.69518 6.17763 5.75736 6.22539L5.78773 6.25195L6.0162 6.47817C6.07416 6.53575 6.10781 6.61301 6.11032 6.69427C6.11282 6.77553 6.084 6.85468 6.0297 6.91566C5.9754 6.97663 5.89969 7.01486 5.81796 7.02256C5.73622 7.03027 5.65459 7.00689 5.58964 6.95716L5.55926 6.93061L5.3308 6.70439C5.27021 6.64438 5.23618 6.56301 5.23618 6.47817C5.23618 6.39332 5.27021 6.31195 5.3308 6.25195ZM9.90084 6.25195C9.96142 6.31195 9.99545 6.39332 9.99545 6.47817C9.99545 6.56301 9.96142 6.64438 9.90084 6.70439L9.67237 6.93061C9.61142 6.98889 9.52979 7.02114 9.44506 7.02041C9.36033 7.01968 9.27928 6.98603 9.21936 6.92671C9.15945 6.86738 9.12546 6.78713 9.12473 6.70323C9.12399 6.61934 9.15656 6.53851 9.21543 6.47817L9.4439 6.25195C9.5045 6.19196 9.58668 6.15826 9.67237 6.15826C9.75806 6.15826 9.84024 6.19196 9.90084 6.25195ZM7.61582 3.99615C7.70152 3.99615 7.78372 4.02987 7.84432 4.08987C7.90492 4.14988 7.93897 4.23126 7.93897 4.31613V5.18229L8.07276 5.0495C8.13339 4.9895 8.21562 4.95581 8.30134 4.95584C8.34379 4.95586 8.38581 4.96415 8.42502 4.98025C8.46423 4.99634 8.49985 5.01993 8.52986 5.04966C8.55986 5.07939 8.58366 5.11468 8.59989 5.15351C8.61611 5.19234 8.62446 5.23396 8.62444 5.27599C8.62443 5.31802 8.61605 5.35963 8.5998 5.39845C8.58354 5.43728 8.55972 5.47255 8.5297 5.50226L7.84461 6.18091C7.8146 6.21066 7.77896 6.23426 7.73973 6.25037C7.7005 6.26647 7.65845 6.27476 7.61598 6.27476C7.57351 6.27476 7.53146 6.26647 7.49223 6.25037C7.453 6.23426 7.41736 6.21066 7.38735 6.18091L6.70194 5.50226C6.6413 5.44226 6.60722 5.36087 6.60719 5.27599C6.60716 5.19111 6.64118 5.1097 6.70178 5.04966C6.76237 4.98962 6.84457 4.95587 6.93029 4.95584C7.01602 4.95581 7.09824 4.9895 7.15888 5.0495L7.29266 5.18229V4.31645C7.29266 4.23158 7.32671 4.1502 7.38731 4.09019C7.44792 4.03019 7.53011 3.99647 7.61582 3.99647V3.99615Z" fill="#223F7A"/>
</g>
<defs>
<clipPath id="clip0_758_5112">
<rect width="6.75971" height="6.75971" fill="white" transform="translate(4.23584 3.67542)"/>
</clipPath>
</defs>
</svg>
