<svg width="15" height="15" viewBox="0 0 15 15" fill="none" xmlns="http://www.w3.org/2000/svg">
<circle cx="7.61567" cy="7.61408" r="6.75971" fill="#ADD9F7"/>
<path d="M9.66983 9.19015C9.67268 9.12947 9.67863 9.06898 9.68766 9.00891C9.44625 9.10909 9.23554 9.27118 9.07681 9.47883C8.91808 9.68648 8.81694 9.93234 8.78361 10.1916C8.75028 10.4508 8.78594 10.7143 8.88699 10.9553C8.98803 11.1964 9.15088 11.4065 9.35911 11.5645C9.56733 11.7224 9.81354 11.8227 10.0729 11.8551C10.3323 11.8875 10.5956 11.8509 10.8362 11.749C11.0769 11.647 11.2865 11.4834 11.4437 11.2746C11.6009 11.0659 11.7003 10.8193 11.7317 10.5598C11.5059 10.6549 11.26 10.6926 11.016 10.6696C10.772 10.6466 10.5375 10.5637 10.3334 10.4281C10.1293 10.2925 9.96185 10.1085 9.84607 9.89248C9.73029 9.67649 9.66975 9.43521 9.66983 9.19015Z" fill="#223F7A"/>
<path d="M9.65211 7.40746H9.92842C9.8621 6.88454 9.62385 6.39851 9.25114 6.02579C8.87842 5.65307 8.39238 5.41482 7.86947 5.34851V5.62482C7.86947 5.70362 7.83817 5.77919 7.78245 5.83491C7.72673 5.89062 7.65116 5.92193 7.57236 5.92193C7.49356 5.92193 7.41799 5.89062 7.36228 5.83491C7.30656 5.77919 7.27526 5.70362 7.27526 5.62482V5.34851C6.75234 5.41482 6.26631 5.65307 5.89359 6.02579C5.52087 6.39851 5.28262 6.88454 5.21631 7.40746H5.49262C5.57142 7.40746 5.64699 7.43876 5.7027 7.49448C5.75842 7.5502 5.78972 7.62577 5.78972 7.70456C5.78972 7.78336 5.75842 7.85893 5.7027 7.91465C5.64699 7.97037 5.57142 8.00167 5.49262 8.00167H5.21631C5.28262 8.52458 5.52087 9.01062 5.89359 9.38334C6.26631 9.75605 6.75234 9.99431 7.27526 10.0606V9.78431C7.27526 9.70551 7.30656 9.62994 7.36228 9.57422C7.41799 9.5185 7.49356 9.4872 7.57236 9.4872C7.65116 9.4872 7.72673 9.5185 7.78245 9.57422C7.83817 9.62994 7.86947 9.70551 7.86947 9.78431V10.0606C7.99036 10.0455 8.10967 10.0196 8.226 9.98337C8.29082 9.64807 8.43722 9.33389 8.65226 9.06859C8.8673 8.80329 9.14437 8.59502 9.45899 8.46219C9.57583 8.41436 9.70487 8.40499 9.8274 8.43545C9.87637 8.29485 9.91023 8.14944 9.92842 8.00167H9.65211C9.57331 8.00167 9.49774 7.97037 9.44202 7.91465C9.3863 7.85893 9.355 7.78336 9.355 7.70456C9.355 7.62577 9.3863 7.5502 9.44202 7.49448C9.49774 7.43876 9.57331 7.40746 9.65211 7.40746ZM8.46368 8.00167H7.57236C7.49356 8.00167 7.41799 7.97037 7.36228 7.91465C7.30656 7.85893 7.27526 7.78336 7.27526 7.70456V6.81325C7.27526 6.73445 7.30656 6.65888 7.36228 6.60316C7.41799 6.54744 7.49356 6.51614 7.57236 6.51614C7.65116 6.51614 7.72673 6.54744 7.78245 6.60316C7.83817 6.65888 7.86947 6.73445 7.86947 6.81325V7.40746H8.46368C8.54248 7.40746 8.61805 7.43876 8.67377 7.49448C8.72949 7.5502 8.76079 7.62577 8.76079 7.70456C8.76079 7.78336 8.72949 7.85893 8.67377 7.91465C8.61805 7.97037 8.54248 8.00167 8.46368 8.00167Z" fill="#223F7A"/>
<path d="M7.57247 10.6757C6.98485 10.6757 6.41043 10.5014 5.92184 10.175C5.43325 9.8485 5.05244 9.38449 4.82757 8.8416C4.6027 8.2987 4.54386 7.70132 4.6585 7.12499C4.77314 6.54866 5.0561 6.01927 5.47162 5.60376C5.88713 5.18825 6.41652 4.90528 6.99285 4.79064C7.56918 4.676 8.16656 4.73484 8.70945 4.95971C9.25234 5.18459 9.71636 5.5654 10.0428 6.05398C10.3693 6.54257 10.5435 7.117 10.5435 7.70462C10.5431 8.12613 10.4519 8.54261 10.2761 8.92573C10.2836 8.97795 10.2836 9.03097 10.2761 9.08319V9.13073C10.2745 9.1505 10.2745 9.17038 10.2761 9.19015C10.2768 9.39773 10.3498 9.59857 10.4827 9.75804C10.6156 9.9175 10.8 10.0256 11.0041 10.0636C11.4828 9.37051 11.7369 8.54698 11.732 7.70462C11.7351 6.83029 11.4636 5.97705 10.9558 5.26529C10.448 4.55353 9.72956 4.01919 8.90179 3.73765C8.07403 3.45611 7.17876 3.4416 6.3423 3.69616C5.50585 3.95072 4.77044 4.4615 4.23984 5.15642C3.70924 5.85135 3.41025 6.69534 3.38504 7.56931C3.35983 8.44328 3.60968 9.3031 4.09934 10.0275C4.589 10.7518 5.29375 11.3041 6.11414 11.6065C6.93453 11.9088 7.82915 11.9459 8.67177 11.7126C8.40694 11.3999 8.24233 11.0148 8.19937 10.6073C7.99349 10.6527 7.7833 10.6756 7.57247 10.6757Z" fill="#223F7A"/>
</svg>
