<svg width="14" height="15" viewBox="0 0 14 15" fill="none" xmlns="http://www.w3.org/2000/svg">
<circle cx="6.82514" cy="8.01643" r="5.91475" fill="white" stroke="#223F7A" stroke-width="1.68993"/>
<path d="M8.71075 9.27247C8.7133 9.21829 8.71861 9.16429 8.72667 9.11066C8.51113 9.2001 8.32301 9.34482 8.18129 9.53021C8.03957 9.71561 7.94928 9.93511 7.91952 10.1666C7.88976 10.398 7.9216 10.6332 8.01181 10.8484C8.10203 11.0637 8.24743 11.2513 8.43333 11.3923C8.61924 11.5334 8.83907 11.6229 9.07062 11.6518C9.30218 11.6807 9.53727 11.648 9.75216 11.557C9.96705 11.466 10.1541 11.32 10.2945 11.1336C10.4349 10.9471 10.5236 10.727 10.5517 10.4953C10.35 10.5802 10.1305 10.6139 9.91266 10.5934C9.69483 10.5729 9.48545 10.4988 9.3032 10.3777C9.12095 10.2566 8.97148 10.0924 8.86811 9.89953C8.76474 9.70668 8.71068 9.49127 8.71075 9.27247Z" fill="#223F7A"/>
<path d="M8.69524 7.68086H8.94194C8.88273 7.214 8.67002 6.78005 8.33725 6.44728C8.00448 6.11451 7.57053 5.9018 7.10366 5.84259V6.08929C7.10366 6.15964 7.07572 6.22711 7.02597 6.27685C6.97622 6.3266 6.90875 6.35455 6.8384 6.35455C6.76805 6.35455 6.70058 6.3266 6.65083 6.27685C6.60108 6.22711 6.57314 6.15964 6.57314 6.08929V5.84259C6.10627 5.9018 5.67232 6.11451 5.33955 6.44728C5.00678 6.78005 4.79407 7.214 4.73486 7.68086H4.98156C5.05191 7.68086 5.11938 7.70881 5.16913 7.75856C5.21887 7.8083 5.24682 7.87578 5.24682 7.94613C5.24682 8.01648 5.21887 8.08395 5.16913 8.1337C5.11938 8.18344 5.05191 8.21139 4.98156 8.21139H4.73486C4.79407 8.67826 5.00678 9.1122 5.33955 9.44497C5.67232 9.77774 6.10627 9.99046 6.57314 10.0497V9.80297C6.57314 9.73262 6.60108 9.66515 6.65083 9.6154C6.70058 9.56565 6.76805 9.53771 6.8384 9.53771C6.90875 9.53771 6.97622 9.56565 7.02597 9.6154C7.07572 9.66515 7.10366 9.73262 7.10366 9.80297V10.0497C7.2116 10.0361 7.31812 10.0131 7.42198 9.9807C7.47986 9.68133 7.61057 9.40083 7.80256 9.16396C7.99455 8.92709 8.24192 8.74115 8.52282 8.62255C8.62714 8.57985 8.74235 8.57149 8.85175 8.59867C8.89547 8.47315 8.9257 8.34332 8.94194 8.21139H8.69524C8.62489 8.21139 8.55742 8.18344 8.50767 8.1337C8.45793 8.08395 8.42998 8.01648 8.42998 7.94613C8.42998 7.87578 8.45793 7.8083 8.50767 7.75856C8.55742 7.70881 8.62489 7.68086 8.69524 7.68086ZM7.63419 8.21139H6.8384C6.76805 8.21139 6.70058 8.18344 6.65083 8.1337C6.60108 8.08395 6.57314 8.01648 6.57314 7.94613V7.15034C6.57314 7.07999 6.60108 7.01251 6.65083 6.96277C6.70058 6.91302 6.76805 6.88507 6.8384 6.88507C6.90875 6.88507 6.97622 6.91302 7.02597 6.96277C7.07572 7.01251 7.10366 7.07999 7.10366 7.15034V7.68086H7.63419C7.70454 7.68086 7.77201 7.70881 7.82176 7.75856C7.87151 7.8083 7.89945 7.87578 7.89945 7.94613C7.89945 8.01648 7.87151 8.08395 7.82176 8.1337C7.77201 8.18344 7.70454 8.21139 7.63419 8.21139Z" fill="#223F7A"/>
<path d="M6.83833 10.5987C6.31369 10.5987 5.80083 10.4432 5.36461 10.1517C4.92839 9.86022 4.58839 9.44593 4.38762 8.96123C4.18685 8.47652 4.13432 7.94317 4.23667 7.42861C4.33902 6.91405 4.59166 6.44139 4.96264 6.07042C5.33362 5.69944 5.80627 5.4468 6.32083 5.34445C6.83539 5.2421 7.36875 5.29463 7.85345 5.4954C8.33816 5.69617 8.75244 6.03616 9.04391 6.47239C9.33539 6.90861 9.49096 7.42147 9.49096 7.94611C9.49058 8.32245 9.40916 8.69429 9.25223 9.03634C9.25887 9.08297 9.25887 9.1303 9.25223 9.17693V9.21937C9.25074 9.23703 9.25074 9.25477 9.25223 9.27243C9.25279 9.45775 9.31802 9.63707 9.43667 9.77945C9.55532 9.92182 9.71993 10.0183 9.90212 10.0523C10.3295 9.43345 10.5564 8.69819 10.552 7.94611C10.5548 7.16549 10.3124 6.4037 9.85906 5.76822C9.40569 5.13275 8.76422 4.65567 8.02518 4.40431C7.28613 4.15295 6.48681 4.13999 5.74001 4.36727C4.9932 4.59454 4.33661 5.05058 3.86288 5.67102C3.38915 6.29147 3.1222 7.04501 3.09969 7.82531C3.07719 8.6056 3.30026 9.37327 3.73744 10.02C4.17462 10.6667 4.80383 11.1598 5.5363 11.4298C6.26876 11.6997 7.0675 11.7329 7.81981 11.5245C7.58336 11.2454 7.4364 10.9015 7.39804 10.5377C7.21422 10.5783 7.02656 10.5987 6.83833 10.5987Z" fill="#223F7A"/>
</svg>
