<svg width="22" height="21" viewBox="0 0 22 21" fill="none" xmlns="http://www.w3.org/2000/svg">
<circle cx="11.2476" cy="10.3936" r="10.3941" fill="#223F7A"/>
<g clip-path="url(#clip0_758_5206)">
<path d="M11.2479 9.67432C11.7675 9.67429 12.2784 9.80667 12.7315 10.0587C13.1845 10.3108 13.5644 10.6741 13.8346 11.1136C14.1048 11.5531 14.2562 12.054 14.2743 12.5682C14.2923 13.0825 14.1764 13.5926 13.9378 14.0497L13.8706 14.1716H15.2852C15.4139 14.1717 15.5376 14.2205 15.6311 14.3079C15.7246 14.3954 15.7809 14.5149 15.7885 14.642C15.796 14.7692 15.7542 14.8944 15.6717 14.992C15.5891 15.0897 15.472 15.1525 15.3443 15.1675L15.2852 15.171H7.21051C7.08188 15.1709 6.95816 15.1221 6.86463 15.0347C6.77109 14.9472 6.71481 14.8277 6.70727 14.7006C6.69973 14.5734 6.74151 14.4483 6.82407 14.3506C6.90663 14.2529 7.02373 14.1901 7.15146 14.1751L7.21051 14.1716H8.6251C8.35932 13.7158 8.2194 13.1987 8.21942 12.6724C8.21944 12.1461 8.35939 11.629 8.62521 11.1732C8.89102 10.7174 9.27333 10.339 9.73371 10.0758C10.1941 9.81273 10.7163 9.67425 11.2479 9.67432ZM15.7899 12.1728C15.9237 12.1728 16.0521 12.2255 16.1467 12.3192C16.2414 12.4129 16.2946 12.54 16.2946 12.6725C16.2946 12.805 16.2414 12.9321 16.1467 13.0259C16.0521 13.1196 15.9237 13.1722 15.7899 13.1722H15.2852C15.1514 13.1722 15.023 13.1196 14.9284 13.0259C14.8337 12.9321 14.7806 12.805 14.7806 12.6725C14.7806 12.54 14.8337 12.4129 14.9284 12.3192C15.023 12.2255 15.1514 12.1728 15.2852 12.1728H15.7899ZM7.21051 12.1728C7.34436 12.1728 7.47272 12.2255 7.56737 12.3192C7.66201 12.4129 7.71518 12.54 7.71518 12.6725C7.71518 12.805 7.66201 12.9321 7.56737 13.0259C7.47272 13.1196 7.34436 13.1722 7.21051 13.1722H6.70584C6.57199 13.1722 6.44363 13.1196 6.34899 13.0259C6.25434 12.9321 6.20117 12.805 6.20117 12.6725C6.20117 12.54 6.25434 12.4129 6.34899 12.3192C6.44363 12.2255 6.57199 12.1728 6.70584 12.1728H7.21051ZM7.67935 9.13915C7.76625 9.05311 7.88187 9.00142 8.00452 8.99379C8.12716 8.98615 8.24841 9.02309 8.34551 9.09767L8.39295 9.13915L8.74975 9.49243C8.84026 9.58236 8.89281 9.70302 8.89673 9.82992C8.90064 9.95682 8.85563 10.0804 8.77082 10.1757C8.68602 10.2709 8.56779 10.3306 8.44015 10.3426C8.31251 10.3547 8.18502 10.3181 8.08359 10.2405L8.03615 10.199L7.67935 9.84572C7.58474 9.75201 7.53159 9.62493 7.53159 9.49243C7.53159 9.35993 7.58474 9.23285 7.67935 9.13915ZM14.8164 9.13915C14.911 9.23285 14.9641 9.35993 14.9641 9.49243C14.9641 9.62493 14.911 9.75201 14.8164 9.84572L14.4596 10.199C14.3644 10.29 14.2369 10.3404 14.1046 10.3393C13.9723 10.3381 13.8457 10.2856 13.7521 10.1929C13.6586 10.1003 13.6055 9.97494 13.6043 9.84392C13.6032 9.7129 13.6541 9.58668 13.746 9.49243L14.1028 9.13915C14.1974 9.04547 14.3258 8.99284 14.4596 8.99284C14.5934 8.99284 14.7217 9.04547 14.8164 9.13915ZM11.2479 5.61627C11.3817 5.61627 11.5101 5.66892 11.6047 5.76263C11.6994 5.85634 11.7525 5.98344 11.7525 6.11597V7.46865L11.9615 7.26128C12.0562 7.16758 12.1846 7.11497 12.3184 7.11502C12.3847 7.11504 12.4504 7.12799 12.5116 7.15313C12.5728 7.17827 12.6285 7.2151 12.6753 7.26153C12.7222 7.30796 12.7593 7.36307 12.7847 7.42371C12.81 7.48436 12.8231 7.54936 12.823 7.61499C12.823 7.68063 12.8099 7.74561 12.7846 7.80624C12.7592 7.86687 12.722 7.92196 12.6751 7.96835L11.6052 9.02821C11.5583 9.07467 11.5026 9.11153 11.4414 9.13668C11.3801 9.16182 11.3144 9.17477 11.2481 9.17477C11.1818 9.17477 11.1161 9.16182 11.0549 9.13668C10.9936 9.11153 10.9379 9.07467 10.8911 9.02821L9.82066 7.96835C9.72597 7.87465 9.67274 7.74755 9.67269 7.61499C9.67264 7.48244 9.72578 7.35529 9.82041 7.26153C9.91504 7.16777 10.0434 7.11506 10.1773 7.11502C10.3112 7.11497 10.4396 7.16758 10.5343 7.26128L10.7432 7.46865V6.11647C10.7432 5.98394 10.7964 5.85684 10.891 5.76313C10.9857 5.66942 11.114 5.61677 11.2479 5.61677V5.61627Z" fill="white"/>
</g>
<defs>
<clipPath id="clip0_758_5206">
<rect width="10.3941" height="10.3941" fill="white" transform="translate(6.05078 5.19647)"/>
</clipPath>
</defs>
</svg>
