<svg width="15" height="14" viewBox="0 0 15 14" fill="none" xmlns="http://www.w3.org/2000/svg">
<circle cx="7.61567" cy="7.13349" r="6.75971" fill="#ADD9F7"/>
<path d="M10.846 10.1357C10.8419 10.1494 10.8373 10.1627 10.8322 10.1758C11.5001 10.3615 12.2093 10.0128 12.4378 9.37419C12.6739 8.71558 12.3091 7.99782 11.6234 7.77113C10.9377 7.54455 10.1903 7.89499 9.95446 8.55359C9.86438 8.80513 9.8621 9.06524 9.93157 9.30332L10.4438 9.44304C10.7534 9.5276 10.9339 9.83829 10.846 10.1357Z" fill="#223F7A"/>
<path d="M4.51524 7.48467C4.48832 7.77147 4.48681 7.97081 4.63404 8.09674C4.64939 8.11951 4.66585 8.14188 4.68424 8.16335L5.43517 9.03671L3.87085 9.03682C3.46786 9.03677 3.14111 9.35043 3.14111 9.73765C3.14111 10.1247 3.46786 10.4385 3.87091 10.4385H6.98443C7.26599 10.4385 7.52461 10.2809 7.64464 10.0363C7.67237 9.97976 7.69122 9.92083 7.70226 9.86095L7.65877 9.84912C7.47978 9.80017 7.33465 9.67082 7.27043 9.50316C7.20989 9.34471 7.22828 9.16814 7.31725 9.02393L6.82366 8.44987C7.08327 8.51077 7.33628 8.5803 7.5754 8.64994L8.17081 7.79463C8.27945 7.63881 8.46101 7.54573 8.65652 7.54573C8.77211 7.54573 8.88408 7.57848 8.98058 7.64038C9.11024 7.7237 9.19828 7.85031 9.22863 7.99727C9.25893 8.14412 9.22788 8.29349 9.14124 8.41814L8.76966 8.9521C9.18975 8.96096 9.58609 8.79538 9.70997 8.46586C9.88464 8.00193 9.6893 7.28506 8.86908 6.92021C7.73804 6.42499 6.98443 6.26794 5.6789 6.2847C4.72505 6.36685 4.56311 6.97292 4.51524 7.48467Z" fill="#223F7A"/>
<path d="M8.91553 7.73356C8.7011 7.59591 8.41107 7.65131 8.26775 7.8572L8.26764 7.85709L7.43002 9.06031C7.34659 9.18002 7.32826 9.32928 7.37993 9.46441C7.43165 9.59954 7.54648 9.70182 7.69056 9.74112L10.1571 10.414C10.1997 10.4256 10.2427 10.4312 10.2849 10.4312C10.4884 10.4312 10.6756 10.3025 10.7339 10.1052C10.8044 9.86678 10.6605 9.61872 10.4123 9.55093L8.56315 9.04652L9.04402 8.35584C9.1874 8.14983 9.12995 7.87133 8.91553 7.73356Z" fill="#223F7A"/>
<path d="M10.9267 6.16026C10.736 6.16026 10.5572 6.12393 10.3904 6.05128C10.2235 5.97862 10.0782 5.88045 9.95443 5.75675C9.83064 5.63296 9.73242 5.48765 9.65976 5.32081C9.58711 5.15398 9.55078 4.97515 9.55078 4.78434C9.55078 4.45285 9.65636 4.16055 9.86752 3.90743C10.0787 3.65432 10.3477 3.49706 10.6747 3.43567C10.6338 3.66045 10.6463 3.88014 10.7121 4.09475C10.778 4.30935 10.8915 4.49722 11.0527 4.65833C11.2139 4.81953 11.4018 4.93306 11.6164 4.9989C11.831 5.06475 12.0507 5.07724 12.2754 5.03637C12.2163 5.36332 12.0597 5.63237 11.8054 5.84353C11.5511 6.05468 11.2582 6.16026 10.9267 6.16026Z" fill="#223F7A"/>
</svg>
