<svg width="14" height="14" viewBox="0 0 14 14" fill="none" xmlns="http://www.w3.org/2000/svg">
<circle cx="6.82514" cy="7.01643" r="5.91475" fill="white" stroke="#223F7A" stroke-width="1.68993"/>
<path d="M9.23188 9.56541C9.22867 9.57632 9.22495 9.58686 9.22095 9.59736C9.75315 9.7453 10.3183 9.46743 10.5004 8.95854C10.6885 8.43371 10.3978 7.86173 9.85141 7.68108C9.30496 7.50052 8.70935 7.77978 8.52145 8.30462C8.44967 8.50506 8.44785 8.71234 8.50321 8.90206L8.91144 9.01341C9.15814 9.08079 9.30194 9.32838 9.23188 9.56541Z" fill="#223F7A"/>
<path d="M4.18731 7.4528C4.16586 7.68135 4.16465 7.84019 4.28198 7.94055C4.29421 7.95869 4.30733 7.97652 4.32199 7.99363L4.92039 8.6896L3.6738 8.68969C3.35267 8.68965 3.09229 8.9396 3.09229 9.24817C3.09229 9.55657 3.35267 9.8067 3.67385 9.8067H6.15498C6.37935 9.8067 6.58544 9.6811 6.68109 9.48615C6.70319 9.44111 6.71822 9.39415 6.72701 9.34643L6.69235 9.337C6.54972 9.29799 6.43406 9.19491 6.38289 9.06131C6.33465 8.93504 6.3493 8.79434 6.4202 8.67941L6.02686 8.22196C6.23374 8.27048 6.43537 8.32589 6.62592 8.38138L7.10039 7.6998C7.18697 7.57563 7.33165 7.50146 7.48745 7.50146C7.57956 7.50146 7.66879 7.52755 7.74569 7.57688C7.84901 7.64328 7.91917 7.74417 7.94336 7.86128C7.9675 7.97831 7.94276 8.09734 7.87372 8.19667L7.57761 8.62218C7.91238 8.62924 8.22821 8.49729 8.32693 8.23469C8.46612 7.86499 8.31046 7.29373 7.65683 7.00298C6.75553 6.60835 6.15498 6.4832 5.11462 6.49656C4.35451 6.56202 4.22546 7.04499 4.18731 7.4528Z" fill="#223F7A"/>
<path d="M7.69347 7.65112C7.5226 7.54142 7.29148 7.58557 7.17727 7.74964L7.17718 7.74955L6.50969 8.70839C6.44321 8.80378 6.4286 8.92273 6.46977 9.03041C6.51099 9.13809 6.6025 9.21959 6.71731 9.25092L8.68289 9.7871C8.7168 9.79635 8.75109 9.80082 8.78473 9.80082C8.9469 9.80082 9.09605 9.69827 9.14252 9.54104C9.19867 9.35105 9.084 9.15338 8.88624 9.09935L7.41267 8.69739L7.79586 8.147C7.91012 7.98284 7.86434 7.7609 7.69347 7.65112Z" fill="#223F7A"/>
<path d="M9.29616 6.39739C9.14418 6.39739 9.00171 6.36844 8.86876 6.31054C8.73581 6.25265 8.62001 6.17441 8.52137 6.07584C8.42273 5.97719 8.34445 5.8614 8.28655 5.72845C8.22866 5.5955 8.19971 5.45299 8.19971 5.30094C8.19971 5.03678 8.28384 4.80384 8.45211 4.60214C8.62038 4.40043 8.83478 4.27512 9.09533 4.2262C9.06276 4.40532 9.07271 4.58039 9.12518 4.75141C9.17765 4.92243 9.26812 5.07213 9.39658 5.20052C9.52504 5.32898 9.67478 5.41945 9.8458 5.47192C10.0168 5.52439 10.1919 5.53434 10.3709 5.50177C10.3239 5.76232 10.199 5.97672 9.99637 6.14499C9.79373 6.31326 9.56032 6.39739 9.29616 6.39739Z" fill="#223F7A"/>
</svg>
