<svg width="15" height="15" viewBox="0 0 15 15" fill="none" xmlns="http://www.w3.org/2000/svg">
<circle cx="7.61567" cy="7.53584" r="6.75971" fill="#ADD9F7"/>
<g clip-path="url(#clip0_758_5099)">
<path d="M7.61534 9.68732C7.69061 9.68733 7.76326 9.71497 7.81951 9.76499C7.87576 9.81501 7.9117 9.88393 7.9205 9.95869L7.92266 9.99464V10.302C7.92257 10.3803 7.89258 10.4556 7.8388 10.5126C7.78503 10.5695 7.71154 10.6038 7.63335 10.6084C7.55515 10.613 7.47815 10.5876 7.41809 10.5373C7.35802 10.487 7.31942 10.4157 7.31017 10.3379L7.30802 10.302V9.99464C7.30802 9.91314 7.34039 9.83497 7.39803 9.77734C7.45566 9.7197 7.53383 9.68732 7.61534 9.68732ZM9.55544 9.04503L9.58433 9.07053L9.79946 9.28566C9.85457 9.34096 9.88657 9.41517 9.88896 9.49322C9.89134 9.57126 9.86393 9.64728 9.81229 9.70585C9.76065 9.76441 9.68865 9.80113 9.61092 9.80853C9.53319 9.81594 9.45556 9.79348 9.39379 9.74571L9.36491 9.72021L9.14978 9.50508C9.09675 9.45214 9.06489 9.38165 9.06019 9.30686C9.05549 9.23208 9.07827 9.15815 9.12426 9.09899C9.17025 9.03982 9.23626 8.9995 9.3099 8.9856C9.38353 8.9717 9.45971 8.98518 9.5241 9.02351L9.55544 9.04503ZM6.08089 9.07053C6.1338 9.12345 6.16559 9.19386 6.17029 9.26855C6.17498 9.34323 6.15226 9.41707 6.1064 9.4762L6.08089 9.50508L5.86577 9.72021C5.81046 9.77532 5.73625 9.80732 5.65821 9.80971C5.58016 9.81209 5.50414 9.78468 5.44557 9.73304C5.38701 9.6814 5.3503 9.6094 5.34289 9.53167C5.33549 9.45395 5.35795 9.37631 5.40571 9.31455L5.43122 9.28566L5.64634 9.07053C5.70397 9.01292 5.78212 8.98055 5.86361 8.98055C5.9451 8.98055 6.02326 9.01292 6.08089 9.07053ZM5.15678 7.22877C5.23511 7.22885 5.31045 7.25885 5.36741 7.31262C5.42436 7.36639 5.45864 7.43988 5.46323 7.51808C5.46782 7.59627 5.44238 7.67327 5.3921 7.73333C5.34183 7.7934 5.27052 7.832 5.19274 7.84126L5.15678 7.84341H4.84946C4.77113 7.84332 4.69579 7.81333 4.63883 7.75955C4.58188 7.70578 4.5476 7.63229 4.54301 7.5541C4.53842 7.4759 4.56386 7.39891 4.61413 7.33884C4.66441 7.27877 4.73572 7.24017 4.8135 7.23092L4.84946 7.22877H5.15678ZM10.3812 7.22877C10.4595 7.22885 10.5349 7.25885 10.5918 7.31262C10.6488 7.36639 10.6831 7.43988 10.6877 7.51808C10.6923 7.59627 10.6668 7.67327 10.6165 7.73333C10.5663 7.7934 10.4949 7.832 10.4172 7.84126L10.3812 7.84341H10.0739C9.99556 7.84332 9.92022 7.81333 9.86327 7.75955C9.80631 7.70578 9.77203 7.63229 9.76744 7.5541C9.76285 7.4759 9.78829 7.39891 9.83857 7.33884C9.88884 7.27877 9.96015 7.24017 10.0379 7.23092L10.0739 7.22877H10.3812ZM5.83688 5.32646L5.86577 5.35197L6.08089 5.56709C6.13601 5.62239 6.16801 5.69661 6.17039 5.77465C6.17277 5.85269 6.14536 5.92872 6.09372 5.98728C6.04208 6.04585 5.97008 6.08256 5.89236 6.08996C5.81463 6.09737 5.737 6.07491 5.67523 6.02715L5.64634 6.00164L5.43122 5.78652C5.37838 5.73356 5.34668 5.66315 5.34205 5.58849C5.33742 5.51383 5.36018 5.44004 5.40607 5.38096C5.45195 5.32188 5.51781 5.28157 5.59129 5.26757C5.66477 5.25358 5.74084 5.26687 5.80522 5.30495L5.83688 5.32646ZM9.79946 5.35197C9.85237 5.40488 9.88416 5.47529 9.88885 5.54998C9.89355 5.62466 9.87083 5.6985 9.82496 5.75763L9.79946 5.78652L9.58433 6.00164C9.52903 6.05676 9.45482 6.08876 9.37677 6.09114C9.29873 6.09352 9.22271 6.06611 9.16414 6.01447C9.10558 5.96283 9.06886 5.89084 9.06146 5.81311C9.05405 5.73538 9.07651 5.65775 9.12427 5.59598L9.14978 5.56709L9.36491 5.35197C9.42254 5.29435 9.50069 5.26199 9.58218 5.26199C9.66367 5.26199 9.74183 5.29435 9.79946 5.35197ZM7.61534 4.46289C7.69061 4.4629 7.76326 4.49054 7.81951 4.54056C7.87576 4.59057 7.9117 4.6595 7.9205 4.73425L7.92266 4.77021V5.07753C7.92257 5.15586 7.89258 5.2312 7.8388 5.28816C7.78503 5.34511 7.71154 5.37939 7.63335 5.38398C7.55515 5.38857 7.47815 5.36313 7.41809 5.31286C7.35802 5.26258 7.31942 5.19127 7.31017 5.11349L7.30802 5.07753V4.77021C7.30802 4.6887 7.34039 4.61054 7.39803 4.5529C7.45566 4.49527 7.53383 4.46289 7.61534 4.46289ZM7.61534 5.99949C7.91641 5.99947 8.21086 6.0879 8.4621 6.2538C8.71335 6.41969 8.91032 6.65574 9.02856 6.93262C9.1468 7.20951 9.1811 7.51503 9.12719 7.81123C9.07328 8.10744 8.93354 8.38129 8.72532 8.59875C8.51711 8.81622 8.24959 8.96773 7.95601 9.03446C7.66242 9.1012 7.3557 9.08021 7.07394 8.97412C6.79218 8.86802 6.5478 8.68149 6.37114 8.43769C6.19448 8.19389 6.09334 7.90357 6.08027 7.60278L6.07874 7.53609L6.08027 7.4694C6.09746 7.0738 6.2667 6.70011 6.55269 6.42625C6.83869 6.15239 7.21937 5.99951 7.61534 5.99949Z" fill="#223F7A"/>
</g>
<defs>
<clipPath id="clip0_758_5099">
<rect width="6.75971" height="6.75971" fill="white" transform="translate(4.23584 4.15601)"/>
</clipPath>
</defs>
</svg>
