<svg width="14" height="15" viewBox="0 0 14 15" fill="none" xmlns="http://www.w3.org/2000/svg">
<circle cx="6.82514" cy="8.01643" r="5.91475" fill="white" stroke="#223F7A" stroke-width="1.68993"/>
<g clip-path="url(#clip0_758_5133)">
<path d="M6.82481 10.1679C6.90008 10.1679 6.97273 10.1956 7.02898 10.2456C7.08523 10.2956 7.12117 10.3645 7.12998 10.4393L7.13213 10.4752V10.7826C7.13204 10.8609 7.10205 10.9362 7.04828 10.9932C6.9945 11.0501 6.92101 11.0844 6.84282 11.089C6.76462 11.0936 6.68763 11.0682 6.62756 11.0179C6.56749 10.9676 6.52889 10.8963 6.51964 10.8185L6.51749 10.7826V10.4752C6.51749 10.3937 6.54987 10.3156 6.6075 10.2579C6.66513 10.2003 6.7433 10.1679 6.82481 10.1679ZM8.76492 9.52562L8.7938 9.55112L9.00893 9.76625C9.06405 9.82155 9.09605 9.89576 9.09843 9.97381C9.10081 10.0519 9.0734 10.1279 9.02176 10.1864C8.97012 10.245 8.89812 10.2817 8.8204 10.2891C8.74267 10.2965 8.66504 10.2741 8.60327 10.2263L8.57438 10.2008L8.35926 9.98567C8.30622 9.93273 8.27436 9.86224 8.26966 9.78745C8.26496 9.71267 8.28774 9.63874 8.33373 9.57958C8.37972 9.52041 8.44574 9.48009 8.51937 9.46619C8.59301 9.45229 8.66918 9.46577 8.73357 9.5041L8.76492 9.52562ZM5.29036 9.55112C5.34328 9.60404 5.37506 9.67445 5.37976 9.74914C5.38445 9.82382 5.36174 9.89766 5.31587 9.95679L5.29036 9.98567L5.07524 10.2008C5.01993 10.2559 4.94572 10.2879 4.86768 10.2903C4.78964 10.2927 4.71361 10.2653 4.65505 10.2136C4.59648 10.162 4.55977 10.09 4.55236 10.0123C4.54496 9.93454 4.56742 9.85691 4.61518 9.79514L4.64069 9.76625L4.85581 9.55112C4.91344 9.49351 4.9916 9.46115 5.07309 9.46115C5.15458 9.46115 5.23273 9.49351 5.29036 9.55112ZM4.36625 7.70936C4.44458 7.70944 4.51992 7.73944 4.57688 7.79321C4.63384 7.84698 4.66811 7.92047 4.6727 7.99867C4.67729 8.07686 4.65185 8.15386 4.60158 8.21393C4.5513 8.27399 4.47999 8.31259 4.40221 8.32185L4.36625 8.324H4.05893C3.9806 8.32391 3.90526 8.29392 3.84831 8.24015C3.79135 8.18637 3.75707 8.11288 3.75248 8.03469C3.74789 7.95649 3.77333 7.8795 3.82361 7.81943C3.87388 7.75936 3.94519 7.72076 4.02298 7.71151L4.05893 7.70936H4.36625ZM9.59068 7.70936C9.66901 7.70944 9.74435 7.73944 9.80131 7.79321C9.85827 7.84698 9.89254 7.92047 9.89713 7.99867C9.90173 8.07686 9.87628 8.15386 9.82601 8.21393C9.77574 8.27399 9.70442 8.31259 9.62664 8.32185L9.59068 8.324H9.28337C9.20504 8.32391 9.1297 8.29392 9.07274 8.24015C9.01578 8.18637 8.98151 8.11288 8.97691 8.03469C8.97232 7.95649 8.99776 7.8795 9.04804 7.81943C9.09831 7.75936 9.16963 7.72076 9.24741 7.71151L9.28337 7.70936H9.59068ZM5.04635 5.80705L5.07524 5.83256L5.29036 6.04768C5.34548 6.10299 5.37748 6.1772 5.37986 6.25524C5.38225 6.33328 5.35483 6.40931 5.30319 6.46787C5.25155 6.52644 5.17956 6.56315 5.10183 6.57055C5.0241 6.57796 4.94647 6.5555 4.8847 6.50774L4.85581 6.48223L4.64069 6.26711C4.58786 6.21415 4.55615 6.14374 4.55152 6.06908C4.54689 5.99442 4.56965 5.92063 4.61554 5.86155C4.66142 5.80247 4.72728 5.76216 4.80076 5.74816C4.87424 5.73417 4.95031 5.74746 5.0147 5.78554L5.04635 5.80705ZM9.00893 5.83256C9.06184 5.88548 9.09363 5.95588 9.09832 6.03057C9.10302 6.10526 9.0803 6.17909 9.03444 6.23822L9.00893 6.26711L8.7938 6.48223C8.7385 6.53735 8.66429 6.56935 8.58625 6.57173C8.5082 6.57411 8.43218 6.5467 8.37361 6.49506C8.31505 6.44342 8.27834 6.37143 8.27093 6.2937C8.26353 6.21597 8.28599 6.13834 8.33375 6.07657L8.35926 6.04768L8.57438 5.83256C8.63201 5.77494 8.71016 5.74258 8.79165 5.74258C8.87314 5.74258 8.9513 5.77494 9.00893 5.83256ZM6.82481 4.94348C6.90008 4.94349 6.97273 4.97113 7.02898 5.02115C7.08523 5.07116 7.12117 5.14009 7.12998 5.21484L7.13213 5.2508V5.55812C7.13204 5.63645 7.10205 5.71179 7.04828 5.76875C6.9945 5.82571 6.92101 5.85998 6.84282 5.86457C6.76462 5.86916 6.68763 5.84372 6.62756 5.79345C6.56749 5.74317 6.52889 5.67186 6.51964 5.59408L6.51749 5.55812V5.2508C6.51749 5.16929 6.54987 5.09113 6.6075 5.03349C6.66513 4.97586 6.7433 4.94348 6.82481 4.94348ZM6.82481 6.48008C7.12588 6.48006 7.42033 6.56849 7.67157 6.73439C7.92282 6.90028 8.1198 7.13633 8.23804 7.41321C8.35628 7.6901 8.39057 7.99562 8.33666 8.29182C8.28275 8.58803 8.14301 8.86188 7.93479 9.07934C7.72658 9.29681 7.45907 9.44832 7.16548 9.51506C6.8719 9.58179 6.56518 9.5608 6.28341 9.45471C6.00165 9.34861 5.75727 9.16208 5.58061 8.91828C5.40396 8.67448 5.30281 8.38416 5.28975 8.08337L5.28821 8.01668L5.28975 7.94999C5.30693 7.55439 5.47617 7.1807 5.76217 6.90684C6.04816 6.63298 6.42884 6.4801 6.82481 6.48008Z" fill="#223F7A"/>
</g>
<defs>
<clipPath id="clip0_758_5133">
<rect width="6.75971" height="6.75971" fill="white" transform="translate(3.44531 4.6366)"/>
</clipPath>
</defs>
</svg>
