<svg width="168" height="39" viewBox="0 0 168 39" fill="none" xmlns="http://www.w3.org/2000/svg">
<g clip-path="url(#clip0_642_12320)">
<path d="M3.78856 11.6218C3.47558 13.673 2.22572 15.1326 0.0410156 16.0018V15.8834C1.21212 15.1732 1.91479 14.422 2.14901 13.6342C1.05461 13.7123 0.392348 13.91 0.158126 14.2261C0.313591 13.2791 0.586166 12.6076 0.977902 12.2137C1.13337 12.0547 2.07025 11.8585 3.78856 11.6218ZM60.4702 17.8959C60.4702 19.0797 60.236 20.1043 59.7675 20.9732C59.2991 21.9984 58.5964 22.5124 57.6595 22.5124C57.0339 22.5124 56.5654 22.4713 56.2542 22.3943C56.2542 22.7882 56.2542 23.1822 56.2542 23.5781C56.2542 25.1559 56.0583 26.1417 55.6686 26.5376C52.545 30.1666 49.6172 31.9831 46.8853 31.9831C45.7142 31.9831 44.8157 31.43 44.1918 30.3255C43.6446 29.456 43.372 28.4699 43.372 27.366C43.372 25.5495 43.8 23.3005 44.6602 20.6183C43.7233 21.3283 42.1605 22.788 39.9758 24.9984C37.5548 27.366 35.7982 29.0236 34.7058 29.9704C32.6745 31.5484 31.035 32.338 29.7872 32.338C28.8503 32.338 28.0305 31.8831 27.3278 30.9766C26.6252 30.0686 26.2738 29.023 26.2738 27.8392C26.2738 26.4184 26.7423 24.6021 27.6792 22.394C27.5216 22.4716 27.3278 22.5121 27.0936 22.5121C26.5464 22.5121 26.078 22.471 25.6883 22.394C25.6883 22.788 25.6883 23.1819 25.6883 23.5778C25.6883 25.1556 25.5308 26.1023 25.2198 26.419C21.549 30.0482 18.5829 31.8645 16.3194 31.8645C15.1483 31.8645 14.2498 31.3906 13.6259 30.4433C13.0002 29.4968 12.689 28.3518 12.689 27.0103C12.689 26.5368 12.8828 25.49 13.2745 23.8732C13.6642 22.2544 13.8601 20.8545 13.8601 19.6707C13.8601 18.7237 13.743 17.8151 13.5088 16.948C12.5719 16.7112 11.635 16.0397 10.6981 14.9355C9.76121 13.8295 9.13555 13.2779 8.82432 13.2779C8.43288 13.2779 7.80868 13.9479 6.95055 15.2906C6.32459 16.3152 5.77944 17.3419 5.311 18.3682C7.10602 19.3153 8.00455 21.3665 8.00455 24.5237H7.419C6.55911 24.1292 5.73904 23.6965 4.95967 23.223C4.17854 22.6702 3.78856 21.8412 3.78856 20.7373C1.99179 21.605 1.09501 22.7888 1.09501 24.2887C1.09501 24.4459 1.85623 26.2603 3.37867 29.7339C4.90111 33.2054 5.66233 35.9675 5.66233 38.0205H5.42811C5.2706 36.7568 4.37411 34.4283 2.73456 31.0355C1.25048 27.8786 0.509459 25.5906 0.509459 24.17C0.509459 22.1167 1.71892 20.2227 4.13989 18.4878C4.45112 17.4611 5.23224 16.0797 6.48211 14.3445C7.88744 12.2912 9.01844 11.2666 9.87832 11.2666C10.1895 11.2666 10.9323 11.9769 12.1034 13.3975C11.9459 13.0015 11.8692 12.6076 11.8692 12.2137C11.8692 11.187 12.2205 10.3196 12.9232 9.60929C13.6259 8.89901 14.484 8.54358 15.4996 8.54358C16.2793 8.54358 17.8017 8.91766 20.067 9.66848C22.3304 10.4172 24.3213 10.7931 26.0396 10.7931L24.6343 13.1607C23.5402 13.3178 21.7835 14.0281 19.3643 15.2915C17.2563 16.3954 15.4996 16.9489 14.0943 16.9489C14.0156 16.9489 13.8601 16.9489 13.6259 16.9489C14.0158 18.053 14.2114 19.2368 14.2114 20.5003C14.2114 21.5251 14.0741 22.6702 13.8015 23.9333C13.5269 25.1955 13.3916 25.9052 13.3916 26.0644C13.3916 28.5892 14.4052 29.8523 16.4365 29.8523C17.9189 29.8523 19.6369 29.0627 21.5894 27.4847C22.8372 26.458 24.0083 25.3932 25.1027 24.2887C25.1027 23.7356 24.7897 22.8679 24.1658 21.6841C23.8529 20.9738 23.5015 20.2635 23.1118 19.5535L23.9316 17.5411C24.6343 18.6452 25.1411 19.3943 25.4541 19.79C25.9995 20.3413 26.5851 20.6192 27.2107 20.6192C27.9904 20.6192 28.616 20.3032 29.0845 19.6722C29.0845 18.4884 29.0057 17.3434 28.8503 16.2389L26.8594 3.69088C26.7806 2.90277 26.6252 2.31087 26.3909 1.91518L26.9765 0.257564L29.0845 4.16381V4.87409L28.0305 3.80867C27.9517 3.96789 27.9517 4.12504 28.0305 4.28249L29.7872 16.2386C29.8639 16.5532 29.9043 17.1066 29.9043 17.8962C29.9043 20.2638 29.2783 21.7231 28.0305 22.2763C27.2491 24.0114 26.8594 25.5504 26.8594 26.8931C26.8594 27.6034 27.132 28.2731 27.6792 28.9061C28.3031 29.6161 29.0444 29.9716 29.9043 29.9716C31.3096 29.9716 33.1046 28.9061 35.2914 26.7753C37.2421 24.9587 39.1947 23.1058 41.1469 21.2114C42.6292 19.9474 44.0747 18.8826 45.48 18.0149C45.0883 17.8562 44.5027 17.423 43.7233 16.713C42.6289 15.8435 42.0838 14.8574 42.0838 13.7535C42.0838 11.9372 43.059 11.0307 45.0116 11.0307C48.7591 11.0307 52.8179 11.7002 57.1911 13.0432L55.6686 15.4108C54.2633 15.8846 51.7252 16.9092 48.0564 18.4887C48.4461 19.1197 48.8762 20.6195 49.3447 22.9871C47.2367 22.9871 46.1827 22.3541 46.1827 21.093C46.1827 20.9341 46.221 20.6583 46.2998 20.2644C46.3768 19.8687 46.4169 19.5926 46.4169 19.4357C46.1039 19.6725 45.6358 19.9865 45.0116 20.3822C44.2301 22.9069 43.8405 24.8016 43.8405 26.0647C43.8405 28.5895 44.8944 29.8526 47.0024 29.8526C49.2659 29.8526 52.1553 27.9976 55.6686 24.289C55.5899 23.7359 55.2772 22.8682 54.7318 21.6844C54.3403 21.0519 53.989 20.3822 53.6778 19.6719L54.3804 17.5411C55.0831 18.7249 55.6282 19.4739 56.02 19.79C56.4884 20.3413 57.074 20.6192 57.7766 20.6192C58.556 20.6192 59.182 20.3032 59.6504 19.6722C59.5717 18.4884 59.4545 17.3434 59.2991 16.2389L57.4253 3.80897C57.2678 2.94154 57.1123 2.31057 56.9569 1.91518L57.5424 0.257564L59.5333 4.16411V4.87439L58.5964 3.80867C58.5177 4.04573 58.5177 4.24372 58.5964 4.40057L60.3531 16.2386C60.4301 16.5529 60.4702 17.106 60.4702 17.8959ZM8.12166 7.36007C8.12166 8.70102 7.69157 9.37283 6.83344 9.37283C6.05202 9.37283 5.66233 8.93778 5.66233 8.07065C5.66233 7.51752 5.77944 6.84808 6.01367 6.05819C6.48211 5.11115 6.71633 4.55979 6.71633 4.40057C6.8718 5.03361 6.91044 5.46629 6.83344 5.70275C7.69157 6.17627 8.12166 6.7294 8.12166 7.36007ZM7.77033 7.83359C7.45735 7.43791 6.9892 7.16179 6.365 7.00493C6.05202 7.31953 5.89655 7.51693 5.89655 7.59683C5.89655 8.07035 6.16913 8.30711 6.71633 8.30711C7.10602 8.30711 7.45735 8.14789 7.77033 7.83359ZM10.9323 27.3663L10.1125 28.6679C9.6441 28.825 9.13555 28.944 8.5901 29.0233C7.72992 29.3379 7.30188 29.6931 7.30188 30.089C7.69186 31.6668 7.88744 32.7712 7.88744 33.4034C7.88744 34.8242 7.84733 35.6529 7.77033 35.8891C7.77033 35.0196 7.61281 33.8766 7.30188 32.4561C6.9892 31.0349 6.83344 30.1272 6.83344 29.7333C6.83344 29.0233 7.08581 28.5495 7.59466 28.3128C8.10146 28.0754 8.5901 27.8777 9.05855 27.7209C8.74586 27.4835 8.47299 27.3657 8.23877 27.3657L7.53611 27.9576V27.3657C7.77033 27.0493 7.96415 26.7534 8.12166 26.4779C8.27712 26.2003 8.47299 26.0638 8.70721 26.0638C9.17566 26.0641 9.91668 26.4968 10.9323 27.3663ZM11.8692 21.4473L10.9323 23.3408L8.94144 22.3943L9.6441 20.737L7.88744 19.7897L8.70721 17.8962L10.8152 18.8432L9.99543 20.5003L11.8692 21.4473ZM21.8236 12.332C21.3552 12.2521 20.2611 11.9769 18.5445 11.5031C17.1392 11.0299 16.0448 10.7931 15.2654 10.7931C13.4684 10.7931 12.5719 11.4628 12.5719 12.8056C12.5719 13.3566 12.766 13.9097 13.1574 14.4629C13.4686 14.7775 13.8601 14.9367 14.3285 14.9367C15.4209 14.9367 16.6707 14.6203 18.0761 13.9897C20.3395 12.9627 21.5894 12.4096 21.8236 12.332ZM22.8776 21.3289C21.7065 24.3272 20.2224 25.8274 18.4274 25.8274C17.0991 25.8274 16.4365 25.1949 16.4365 23.9333C16.4365 22.9066 17.2947 21.8418 19.013 20.7373C18.7003 20.5003 18.3873 20.3819 18.0761 20.3819C17.6846 20.3819 17.2947 20.5781 16.905 20.9738V20.5003C17.2947 19.6308 17.8419 19.1981 18.5445 19.1981C19.7156 19.1981 20.6525 19.3552 21.3552 19.6722L19.9499 20.9735C19.4026 21.1306 18.7969 21.4861 18.1346 22.0395C17.4703 22.5906 17.1392 23.0641 17.1392 23.4601C17.1392 24.1703 17.7631 24.5255 19.013 24.5255C19.8714 24.5255 20.7295 24.052 21.5894 23.1052C21.9791 22.4719 22.4092 21.88 22.8776 21.3289ZM24.9856 5.22923C24.9856 6.17598 24.6726 6.64979 24.0487 6.64979C23.7357 6.64979 23.4228 6.49264 23.1118 6.17598C22.8776 6.80901 22.5263 7.12302 22.0578 7.12302C21.5106 7.12302 21.2381 6.76788 21.2381 6.0576C21.2381 5.58378 21.2381 5.11055 21.2381 4.63703C21.0806 4.79626 20.8867 5.03272 20.6525 5.34702V4.8735C20.808 4.47959 21.198 3.967 21.8236 3.33456C21.5894 4.99188 21.7449 5.82054 22.2921 5.82054C22.6818 5.82054 22.8776 5.54471 22.8776 4.99158C22.8776 4.75482 22.7989 4.2816 22.6434 3.57102L22.9947 2.86163C23.229 3.25731 23.3847 3.84922 23.4632 4.63733C23.4632 5.19046 23.6573 5.46599 24.0487 5.46599C24.2829 5.46599 24.4001 5.26978 24.4001 4.87409L24.0487 3.33515L24.5172 2.50649C24.8284 3.53314 24.9856 4.44141 24.9856 5.22923ZM31.6609 25.5906C31.5822 26.6945 31.1925 27.2482 30.4898 27.2482C29.7872 27.2482 29.4358 26.8928 29.4358 26.1825C29.4358 25.1559 29.9813 23.9721 31.0754 22.6311C30.5282 23.8927 30.2556 24.8007 30.2556 25.3538C30.2556 25.9046 30.4494 26.1825 30.8412 26.1825C31.2308 26.1825 31.4651 25.9845 31.5438 25.5906H31.6609ZM34.0031 18.7246C34.0031 20.3816 33.8073 21.6435 33.4176 22.5127H33.1834C33.2601 20.7758 33.1834 18.9613 32.9491 17.0675L30.8412 3.69059C30.7624 2.90247 30.6069 2.31057 30.3727 1.91488L30.9583 0.257268L32.9491 4.16381V4.87409L32.0123 3.80837C31.9335 3.9676 31.9335 4.12474 32.0123 4.28219L33.886 16.9489C33.9627 17.3428 34.0031 17.9347 34.0031 18.7246ZM39.2731 3.92705C39.2731 4.24312 39.156 4.59886 38.9218 4.99247C38.6876 4.75571 38.4917 4.63763 38.3362 4.63763C37.9448 4.63763 37.6336 5.19076 37.3994 6.29495C37.2418 7.00523 37.1247 7.79334 37.048 8.66255C36.8138 8.02981 36.4224 7.20115 35.8769 6.17657C35.7982 6.57284 35.5639 6.76847 35.1743 6.76847C34.5483 6.76847 34.2374 6.41362 34.2374 5.70305C34.2374 4.83532 34.5102 4.40087 35.0571 4.40087C35.7598 4.40087 36.3837 5.22982 36.9309 6.88685C37.3994 4.04573 37.9849 2.62517 38.6876 2.62517C39.0773 2.62487 39.2731 3.05962 39.2731 3.92705ZM39.3902 10.5563C39.0773 12.6869 37.8678 14.1465 35.7598 14.9364L35.6427 14.818C36.8138 14.108 37.5165 13.3566 37.7507 12.5688C36.6566 12.6466 35.994 12.8443 35.7598 13.1607C35.9153 12.2137 36.1878 11.5421 36.5796 11.1482C36.735 10.9893 37.6719 10.7931 39.3902 10.5563ZM39.2731 17.8959L38.3362 19.7894L36.3454 18.8429L37.2822 16.9489L39.2731 17.8959ZM41.3811 30.5626C41.3811 31.6668 40.9894 32.2202 40.21 32.2202C39.5074 32.2202 39.156 31.8653 39.156 31.1545C39.156 30.1278 39.7012 28.944 40.7956 27.6031H40.9127C40.2867 28.8647 39.9758 29.773 39.9758 30.3258C39.9758 30.8769 40.1699 31.1545 40.5613 31.1545C40.9513 31.1545 41.1853 30.9568 41.264 30.5626H41.3811ZM43.4891 5.22923C43.4891 6.17598 43.2935 7.24169 42.9036 8.42549C42.9806 7.79305 43.0207 7.08454 43.0207 6.29465C43.0207 4.87409 42.5906 3.7699 41.7325 2.98001L41.8496 1.55945C42.395 1.87552 42.8049 2.42895 43.0792 3.21677C43.3518 4.00666 43.4891 4.67788 43.4891 5.22923ZM53.2093 14.5813C51.0226 13.6342 48.4845 13.1607 45.5971 13.1607C44.1918 13.1607 43.2549 13.3178 42.7865 13.6342C42.7865 13.7914 43.2933 14.2448 44.3089 14.9959C45.3225 15.7446 46.1827 16.4756 46.8853 17.1856C48.5249 16.3957 50.6329 15.5283 53.2093 14.5813ZM55.7857 1.20431C55.7857 1.67812 55.6484 2.23126 55.3759 2.86193C55.1012 3.49437 54.7701 3.9676 54.3804 4.28249C54.8489 3.33545 55.0831 2.66601 55.0831 2.27003C51.1013 3.53344 47.4709 5.66428 44.1918 8.66255C44.2688 8.26657 44.3472 7.87266 44.426 7.47875C45.7526 6.1378 47.5294 4.87439 49.7545 3.69059C51.9797 2.50649 53.989 1.67783 55.7857 1.20431ZM52.858 22.0392C53.0134 22.6702 52.858 23.025 52.3895 23.1049C52.1553 23.1828 51.804 23.025 51.3355 22.6311C51.0226 23.1822 50.5158 23.9327 49.8131 24.8806C48.9529 25.9052 47.8222 26.5382 46.4169 26.7744L45.3629 27.0112C46.4552 26.458 47.665 25.6684 48.9933 24.6436C50.0857 23.7741 50.8267 22.9066 51.2184 22.0392C51.5297 21.4065 51.804 21.0516 52.0382 20.9732C52.4279 20.8945 52.7005 21.2493 52.858 22.0392ZM53.7949 7.95197C53.7949 8.89901 53.4819 9.37283 52.858 9.37283C52.545 9.37283 52.2323 9.17484 51.9211 8.78093C51.6869 9.4116 51.3355 9.72767 50.8671 9.72767C50.3987 9.72767 50.124 9.41189 50.0473 8.78093C50.0473 8.2278 50.0473 7.71521 50.0473 7.24199C49.8901 7.47875 49.7346 7.71551 49.5789 7.95197V7.59683C49.6556 7.20115 50.0069 6.69034 50.6329 6.05789C50.3987 7.6359 50.5541 8.42549 51.1013 8.42549C51.4913 8.42549 51.6869 8.18873 51.6869 7.71521C51.6869 7.47845 51.6081 6.96646 51.4527 6.17627L51.9211 5.58437C52.0766 5.90074 52.1937 6.45387 52.2724 7.24199C52.2724 7.79334 52.4665 8.07065 52.858 8.07065C53.0922 8.07065 53.2093 7.91143 53.2093 7.59713C53.2093 7.51722 53.0922 7.00523 52.858 6.05819L53.3264 5.11115C53.6376 6.1375 53.7949 7.08454 53.7949 7.95197ZM52.6238 22.3943C52.3108 21.9205 51.9594 21.8024 51.5698 22.0392C52.0382 22.3535 52.3895 22.4719 52.6238 22.3943ZM63.2808 27.2479C63.2808 28.0357 63.0466 28.4317 62.5782 28.4317C62.2652 28.4317 61.9139 28.3136 61.5242 28.0763C60.1956 30.5223 57.7362 31.7061 54.1462 31.6277H54.0291V31.5096C57.5424 30.6401 59.923 29.4175 61.1728 27.8401C60.7814 27.6809 60.5873 27.4441 60.5873 27.1301C60.5873 26.8928 60.7044 26.6158 60.9386 26.3009C61.1728 25.9851 61.3667 25.8274 61.5242 25.8274L61.4071 25.3538L61.5242 25.2355C61.6796 25.2355 61.9522 25.3926 62.344 25.709V25.8274C62.9679 26.5376 63.2808 27.0112 63.2808 27.2479ZM64.5691 18.7246C64.5691 20.3816 64.3735 21.6435 63.9835 22.5127H63.7493C63.826 20.7758 63.7089 18.9613 63.3979 17.0675L61.4071 3.69059C61.2496 2.90247 61.0941 2.31057 60.9386 1.91488L61.5242 0.257268L63.5151 4.16381V4.87409L62.5782 3.80837C62.4994 3.9676 62.4611 4.12474 62.4611 4.28219L64.452 16.9489C64.529 17.3428 64.5691 17.9347 64.5691 18.7246ZM61.9926 26.656C61.9926 26.4968 61.9139 26.419 61.7584 26.419C61.4457 26.419 61.2112 26.5373 61.0557 26.7741C61.2112 27.0109 61.4457 27.168 61.7584 27.2479C61.7584 27.168 61.7968 27.0701 61.8755 26.952C61.9522 26.8336 61.9926 26.7336 61.9926 26.656ZM167.041 22.276C167.041 23.3801 166.787 24.2887 166.279 24.9987C165.771 25.7084 165.205 26.0641 164.581 26.0641C163.41 26.0641 162.59 25.313 162.122 23.8146C161.81 25.313 161.145 26.0641 160.131 26.0641C159.194 26.0641 158.569 25.4311 158.258 24.1703C157.632 25.6687 156.54 26.4196 154.979 26.4196C154.432 26.4196 153.983 26.2014 153.632 25.7688C153.281 25.334 153.105 24.8398 153.105 24.289C153.105 24.052 153.105 23.8543 153.105 23.6971C142.096 27.1686 130.853 28.9061 119.377 28.9061C113.832 28.9061 108.407 28.4323 103.098 27.485C98.022 26.6954 94.2359 25.63 91.7385 24.289C91.7385 25.3929 91.6978 26.4974 91.6214 27.6034H91.3874C90.4505 26.9709 89.865 26.2219 89.6308 25.3541C89.552 24.7211 89.4935 24.1292 89.4551 23.5784C89.4144 23.0253 88.9275 22.7492 87.9912 22.7492C87.131 22.7492 85.6672 24.0114 83.5996 26.5379C81.5299 29.0624 79.9489 30.3261 78.8566 30.3261C78.2306 30.3261 77.6855 30.0302 77.217 29.4383C76.7486 28.8464 76.5144 28.0363 76.5144 27.0115C76.5144 26.4583 76.6315 25.7871 76.8657 24.999C76.4743 25.1561 76.0846 25.2358 75.6946 25.2358C74.132 25.2358 73.1181 24.1703 72.6497 22.0395C72.4922 24.6439 71.3211 25.946 69.1364 25.946C68.1995 25.946 67.4968 25.4317 67.0284 24.4071C66.7157 23.6172 66.5983 22.7092 66.6771 21.6844C66.6771 21.5254 66.7538 20.9741 66.9113 20.027C66.9883 19.2371 67.0284 18.5269 67.0284 17.8962C66.4812 18.6843 66.0915 19.711 65.8573 20.9735C65.7001 21.8415 65.5446 22.7086 65.3888 23.5784C65.0759 24.999 64.5691 25.7087 63.8664 25.7087C63.3192 25.7087 62.8507 25.2541 62.4611 24.3473C62.0693 23.4393 61.8755 22.4716 61.8755 21.447C61.8755 20.341 61.9522 19.1185 62.1097 17.7772L62.344 17.8956C62.2652 18.5263 62.2268 19.1572 62.2268 19.7891C62.2268 22.4713 62.7723 23.8146 63.8664 23.8146C64.2561 23.8146 64.6074 23.2227 64.9204 22.0389C65.4655 20.0652 65.7785 18.9202 65.8573 18.6056C66.4027 17.2632 67.1054 16.3564 67.9653 15.8831V17.4218C67.6523 19.4733 67.4968 20.7367 67.4968 21.2102C67.4968 22.9448 68.1207 23.8146 69.3706 23.8146C70.1503 23.8146 70.8345 23.4982 71.42 22.8676C72.0056 22.2351 72.2984 21.4861 72.2984 20.6183L71.4786 16.0018L72.0641 14.3445C72.4538 15.1326 72.6881 15.7651 72.7668 16.2383C73.001 17.5792 73.1949 18.961 73.3524 20.3816C73.8208 22.3535 74.6789 23.3411 75.9288 23.3411C76.7082 23.3411 77.2554 23.0253 77.5684 22.3946C77.1769 21.5251 76.7872 20.6577 76.3972 19.7897C75.85 18.3694 75.5371 17.2635 75.4604 16.4756L75.109 15.6467L75.5775 13.9894L77.217 16.5937V17.1856C76.9828 17.0264 76.7486 16.8305 76.5144 16.5937C76.4356 16.7509 76.4356 16.8305 76.5144 16.8305C77.6067 19.3552 78.1539 21.0922 78.1539 22.0395C78.1539 23.4601 77.8412 24.4071 77.217 24.8809C76.9828 25.6687 76.8657 26.2606 76.8657 26.6566C76.8657 27.7605 77.4111 28.3142 78.5052 28.3142C79.5188 28.3142 81.0416 27.0304 83.0726 24.4669C85.1015 21.9013 86.703 20.6195 87.8741 20.6195C88.2638 20.6195 88.811 20.8563 89.5137 21.3295L90.0992 19.9087C91.1916 21.4864 94.4323 22.9454 99.8194 24.2884C105.986 25.7087 113.053 26.419 121.016 26.419C126.403 26.419 132.336 25.9454 138.817 24.9984C144.439 24.1289 149.513 23.0635 154.042 21.8021C153.884 22.0389 153.807 22.3138 153.807 22.6308C153.807 23.1046 153.963 23.5373 154.276 23.9324C154.587 24.3266 154.938 24.5243 155.331 24.5243C156.11 24.5243 156.93 24.1286 157.789 23.3405L159.312 21.8024L159.429 21.9208C159.429 22.078 159.429 22.2354 159.429 22.3946C159.429 23.4982 159.818 24.052 160.6 24.052C160.99 24.052 161.42 23.6971 161.888 22.9865C162.433 22.0395 162.824 21.4867 163.059 21.3289H163.176C163.176 21.4861 163.176 21.6435 163.176 21.8027C163.176 22.4334 163.389 23.0052 163.82 23.5192C164.248 24.0312 164.658 24.2887 165.05 24.2887C165.829 24.2887 166.221 23.9726 166.221 23.3414C166.221 22.6317 165.635 21.2111 164.464 19.0803C163.214 16.7905 162.55 15.4105 162.473 14.937C162.394 14.7778 162.277 14.5611 162.122 14.2859C161.965 14.0083 161.888 13.8307 161.888 13.7532L162.239 11.9775L164.581 14.4632V14.9364L163.527 14.4626V14.6996C164.151 15.6464 164.775 16.5934 165.4 17.5408C166.494 19.5124 167.041 21.0922 167.041 22.276ZM62.9295 27.6031C62.7723 27.4441 62.5381 27.1683 62.2268 26.7744L61.9926 27.3663C62.2268 27.5235 62.4611 27.6031 62.6953 27.6031C62.7723 27.6031 62.8508 27.6031 62.9295 27.6031ZM76.8657 0.0205078C76.8657 0.416193 76.7082 0.928779 76.3972 1.55945C76.0846 2.19189 75.7716 2.70448 75.4604 3.09839C75.9288 2.15135 76.163 1.44077 76.163 0.967548C71.3211 2.54703 67.2222 4.87409 63.8664 7.95197C63.8664 7.55629 63.9434 7.12331 64.1006 6.65009C65.4272 5.38875 67.4567 4.04573 70.1904 2.62487C72.7668 1.28392 74.9919 0.416193 76.8657 0.0205078ZM71.947 27.7214C71.947 28.1154 71.7895 28.5093 71.4786 28.9052C71.3211 28.6679 71.1273 28.5501 70.893 28.5501C70.5016 28.5501 70.1904 29.0621 69.9562 30.089C69.8774 30.8769 69.7606 31.6668 69.6048 32.4566C69.4473 31.9035 69.0576 31.0749 68.4337 29.9707C68.355 30.4442 68.1591 30.6809 67.8482 30.6809C67.1455 30.6809 66.7942 30.285 66.7942 29.4971C66.7942 28.7073 67.1054 28.3133 67.731 28.3133C68.355 28.3133 68.9789 29.142 69.6048 30.799C69.9945 27.9576 70.5801 26.5376 71.3615 26.5376C71.7512 26.5376 71.947 26.9316 71.947 27.7214ZM72.1813 10.2012C72.1813 11.1482 71.8299 11.6218 71.1273 11.6218C70.893 11.6218 70.5801 11.4238 70.1904 11.0299C70.0329 11.6605 69.6815 11.9769 69.1364 11.9769C68.6679 11.9769 68.3933 11.6605 68.3166 11.0299C68.3166 10.4767 68.3166 9.96443 68.3166 9.49091C68.1591 9.72767 68.0036 9.96473 67.8482 10.2012V9.72767C68.0036 9.41189 68.355 8.93808 68.9022 8.30711C68.7446 9.88482 68.9022 10.6747 69.3706 10.6747C69.7606 10.6747 69.9562 10.3971 69.9562 9.84605C69.9562 9.68683 69.8774 9.21331 69.7219 8.42549L70.1904 7.83359C70.4246 8.14819 70.5417 8.70102 70.5417 9.49091C70.6187 10.042 70.8529 10.3196 71.2444 10.3196C71.4786 10.3196 71.5957 10.1609 71.5957 9.84605C71.5957 9.76644 71.4786 9.25415 71.2444 8.30711L71.5957 7.36007C71.9854 8.38495 72.1813 9.33169 72.1813 10.2012ZM75.109 8.89901C75.109 9.84605 74.9135 10.9115 74.5235 12.0953C74.6005 11.4628 74.6406 10.7528 74.6406 9.96473C74.6406 8.54387 74.2105 7.43791 73.3524 6.65009L73.4695 5.11115C73.9379 5.50683 74.3279 6.09873 74.6406 6.88685C74.9515 7.67437 75.109 8.34588 75.109 8.89901ZM81.433 18.7246C81.433 20.3816 81.2755 21.6435 80.9646 22.5127H80.7304C80.8071 20.7758 80.6899 18.9613 80.379 17.0675L78.3881 3.69059C78.2306 2.90247 78.0752 2.31057 77.9197 1.91488L78.5052 0.257268L80.4961 4.16381V4.87409L79.5592 3.80837C79.4805 3.9676 79.4421 4.12474 79.4421 4.28219L81.433 16.9489C81.433 17.3428 81.433 17.9347 81.433 18.7246ZM88.9281 26.8925C89.0054 27.6028 88.8493 27.997 88.4597 28.0763C88.2254 28.0763 87.8337 27.9177 87.2886 27.6028C86.9762 28.1541 86.5071 28.8644 85.8832 29.7336C84.9463 30.7582 83.7752 31.4294 82.3699 31.7461L81.433 31.8645C82.4466 31.3906 83.618 30.6395 84.9463 29.6149C86.1174 28.6676 86.8968 27.7593 87.2886 26.8919C87.5998 26.2594 87.8337 25.9043 87.9912 25.8265C88.3809 25.8274 88.6939 26.1825 88.9281 26.8925ZM88.2254 5.70275C88.2254 6.01883 88.1083 6.37456 87.8741 6.76817C87.6399 6.53141 87.444 6.41333 87.2886 6.41333C86.8968 6.41333 86.5862 6.9271 86.3517 7.95197C86.1944 8.81999 86.077 9.60959 86.0006 10.3196C85.8434 9.76674 85.4534 8.97714 84.8295 7.95197C84.7505 8.34618 84.5168 8.54387 84.1271 8.54387C83.5012 8.54387 83.1903 8.18903 83.1903 7.47845C83.1903 6.61073 83.4628 6.17627 84.01 6.17627C84.7127 6.17627 85.3366 7.00523 85.8838 8.66225C86.3522 5.82113 86.9378 4.40057 87.6405 4.40057C88.0296 4.40057 88.2254 4.83532 88.2254 5.70275ZM88.5768 12.2137L87.7564 13.5158C87.288 13.6727 86.7797 13.8304 86.2343 13.9894C85.3741 14.2261 84.9463 14.5813 84.9463 15.0548C85.336 16.5532 85.5319 17.6186 85.5319 18.2513C85.5319 19.6719 85.4915 20.5006 85.4151 20.737C85.4151 19.8675 85.2579 18.7432 84.9463 17.3635C84.6339 15.9817 84.4776 15.0938 84.4776 14.6999C84.4776 13.91 84.7303 13.3978 85.2391 13.161C85.7459 12.9242 86.2343 12.7262 86.703 12.5691C86.3113 12.4099 86.0006 12.3323 85.7661 12.3323C85.8434 12.3323 85.6089 12.4892 85.064 12.8059L85.1806 12.214C85.336 11.9772 85.5123 11.6812 85.7079 11.3261C85.9017 10.971 86.1174 10.7934 86.3517 10.7934C86.8198 10.7931 87.5614 11.2666 88.5768 12.2137ZM88.6939 27.2479C88.3815 26.7741 88.0296 26.656 87.6399 26.8925C88.0296 27.2071 88.3809 27.3255 88.6939 27.2479ZM91.1532 24.0517C90.919 23.8927 90.5676 23.5376 90.0986 22.9862C90.0986 23.3801 90.1958 23.833 90.3914 24.3476C90.5855 24.8599 90.8013 25.1171 91.0355 25.1171C91.1131 25.1168 91.1532 24.7619 91.1532 24.0517ZM151.348 29.0236C150.957 29.0236 150.684 28.7866 150.528 28.3136C149.981 29.0236 149.474 29.3791 149.006 29.3791C148.849 29.3791 148.597 29.2607 148.245 29.0242C147.893 28.7869 147.677 28.6685 147.601 28.6685C147.209 28.6685 146.468 28.9058 145.376 29.3788C143.97 30.0094 142.837 30.483 141.979 30.7996C140.261 31.3504 138.387 31.628 136.357 31.628L136.241 31.3912C137.957 31.3912 139.675 31.0358 141.394 30.3255C142.331 30.0091 143.657 29.3785 145.376 28.4317C146.624 27.7217 147.522 27.366 148.069 27.366C148.225 27.366 148.459 27.5232 148.772 27.8398C149.083 28.1544 149.357 28.3136 149.591 28.3136C149.903 28.3136 150.254 27.9177 150.646 27.1298L150.997 26.8925C150.918 27.5238 151.114 27.8398 151.582 27.8398C151.817 27.8398 152.051 27.4438 152.285 26.656L152.519 26.5379C152.519 28.195 152.128 29.0236 151.348 29.0236ZM160.6 7.47845C160.6 7.79305 160.442 8.18873 160.131 8.66225C159.897 8.34588 159.701 8.18873 159.545 8.18873C159.154 8.18873 158.843 8.7395 158.608 9.84605C158.53 10.5563 158.413 11.3054 158.258 12.0953C158.023 11.5424 157.631 10.7528 157.087 9.72767C157.007 10.1219 156.774 10.3196 156.384 10.3196C155.758 10.3196 155.447 9.96473 155.447 9.25415C155.447 8.38465 155.72 7.95197 156.267 7.95197C156.969 7.95197 157.593 8.78093 158.141 10.438C158.609 7.59683 159.195 6.17627 159.897 6.17627C160.366 6.17627 160.6 6.61102 160.6 7.47845ZM159.663 16.5937C159.663 18.0143 159.233 18.7246 158.375 18.7246C157.593 18.7246 157.204 18.2898 157.204 17.4224C157.204 16.8695 157.359 16.198 157.673 15.4099C158.141 14.4629 158.375 13.91 158.375 13.7526C158.53 14.3833 158.569 14.818 158.492 15.0545C159.271 15.5283 159.663 16.0406 159.663 16.5937ZM159.312 17.1856C158.999 16.7899 158.53 16.4756 157.906 16.2386C157.672 16.6328 157.555 16.8695 157.555 16.9489C157.555 17.3428 157.828 17.5408 158.375 17.5408C158.764 17.5408 159.077 17.4224 159.312 17.1856ZM165.167 28.4317L164.347 30.3255L162.357 29.2595L163.176 27.366L165.167 28.4317Z"/>
</g>
<defs>
<clipPath id="clip0_642_12320">
<rect width="167" height="38" fill="white" transform="translate(0.0410156 0.0205078)"/>
</clipPath>
</defs>
</svg>
