<svg width="17" height="17" viewBox="0 0 17 17" fill="none" xmlns="http://www.w3.org/2000/svg">
<g clip-path="url(#clip0_430_8861)">
<path d="M14.2734 4.85848C14.2734 3.88591 13.8871 2.95318 13.1994 2.26547C12.5117 1.57776 11.5789 1.19141 10.6064 1.19141C9.63379 1.19141 8.70106 1.57776 8.01335 2.26547C7.32564 2.95318 6.93929 3.88591 6.93929 4.85848C6.93929 5.83105 7.32564 6.76378 8.01335 7.45149C8.70106 8.1392 9.63379 8.52555 10.6064 8.52555C11.5789 8.52555 12.5117 8.1392 13.1994 7.45149C13.8871 6.76378 14.2734 5.83105 14.2734 4.85848ZM10.9397 5.19185V6.86137C10.9397 6.94978 10.9046 7.03458 10.8421 7.0971C10.7796 7.15962 10.6948 7.19474 10.6064 7.19474C10.5179 7.19474 10.4332 7.15962 10.3706 7.0971C10.3081 7.03458 10.273 6.94978 10.273 6.86137V5.19185H8.60281C8.51439 5.19185 8.4296 5.15673 8.36708 5.09421C8.30456 5.03169 8.26944 4.94689 8.26944 4.85848C8.26944 4.77006 8.30456 4.68527 8.36708 4.62275C8.4296 4.56023 8.51439 4.52511 8.60281 4.52511H10.273V2.85826C10.273 2.76984 10.3081 2.68505 10.3706 2.62253C10.4332 2.56001 10.5179 2.52489 10.6064 2.52489C10.6948 2.52489 10.7796 2.56001 10.8421 2.62253C10.9046 2.68505 10.9397 2.76984 10.9397 2.85826V4.52511H12.6039C12.6923 4.52511 12.7771 4.56023 12.8396 4.62275C12.9022 4.68527 12.9373 4.77006 12.9373 4.85848C12.9373 4.94689 12.9022 5.03169 12.8396 5.09421C12.7771 5.15673 12.6923 5.19185 12.6039 5.19185H10.9397ZM10.6064 13.7141V9.19229C10.9431 9.19249 11.2787 9.15356 11.6065 9.07628V14.6902C11.6064 14.7822 11.5809 14.8724 11.5329 14.9508C11.4848 15.0293 11.4161 15.0929 11.3342 15.1348C11.2524 15.1767 11.1605 15.1953 11.0688 15.1883C10.9771 15.1814 10.889 15.1493 10.8144 15.0956L6.94062 12.308L3.06553 15.0949C2.99086 15.1487 2.90283 15.1807 2.81112 15.1877C2.7194 15.1946 2.62755 15.1761 2.54567 15.1342C2.4638 15.0923 2.39506 15.0286 2.34703 14.9502C2.299 14.8717 2.27354 14.7815 2.27344 14.6896V4.69179C2.27344 4.11709 2.50174 3.56593 2.90811 3.15956C3.31448 2.75319 3.86565 2.52489 4.44034 2.52489H6.95396C6.7541 2.83658 6.59522 3.17272 6.48124 3.525H4.44034C4.13089 3.525 3.83411 3.64793 3.6153 3.86675C3.39648 4.08556 3.27355 4.38234 3.27355 4.69179V13.7148L6.64792 11.2865C6.733 11.2253 6.83515 11.1924 6.93996 11.1924C7.04476 11.1924 7.14691 11.2253 7.23199 11.2865L10.6064 13.7141Z"/>
</g>
<defs>
<clipPath id="clip0_430_8861">
<rect width="16" height="16" fill="white" transform="translate(0.0742188 0.191406)"/>
</clipPath>
</defs>
</svg>
