<svg width="25" height="25" viewBox="0 0 25 25" fill="none" xmlns="http://www.w3.org/2000/svg">
<g clip-path="url(#clip0_417_24653)">
<path d="M13.8231 16.9277C14.4898 16.6337 15.1604 16.413 15.835 16.2657C16.5095 16.1184 17.2025 16.0451 17.9141 16.0456C18.4595 16.0456 18.9938 16.0876 19.5168 16.1716C20.0398 16.2556 20.5662 16.3816 21.0959 16.5497V8.23302C20.5959 8.037 20.0768 7.88999 19.5386 7.79199C19.0004 7.69398 18.4589 7.64497 17.9141 7.64497C17.2019 7.64497 16.4974 7.72898 15.8004 7.89699C15.1035 8.06501 14.4444 8.31702 13.8231 8.65305V16.9277ZM12.9141 18.9648C12.7019 18.9648 12.501 18.9402 12.3113 18.8909C12.1216 18.8416 11.9438 18.7753 11.7777 18.6918C11.1868 18.3698 10.5656 18.1284 9.91406 17.9677C9.26255 17.8069 8.59588 17.7263 7.91406 17.7257C7.2777 17.7257 6.65285 17.8027 6.03952 17.9568C5.42618 18.1108 4.83891 18.3278 4.2777 18.6078C3.95952 18.7618 3.65285 18.7548 3.3577 18.5868C3.06255 18.4188 2.91467 18.1738 2.91406 17.8517V7.72898C2.91406 7.57497 2.95588 7.42796 3.03952 7.28795C3.12315 7.14794 3.248 7.04293 3.41406 6.97292C4.12618 6.6509 4.8574 6.40224 5.6077 6.22695C6.358 6.05165 7.12679 5.96429 7.91406 5.96485C8.79285 5.96485 9.65285 6.06985 10.4941 6.27987C11.3353 6.48989 12.1419 6.80491 12.9141 7.22494C13.6868 6.80491 14.4938 6.48989 15.335 6.27987C16.1762 6.06985 17.0359 5.96485 17.9141 5.96485C18.7019 5.96485 19.471 6.05249 20.2213 6.22779C20.9716 6.40308 21.7025 6.65146 22.4141 6.97292C22.5807 7.04293 22.7059 7.14794 22.7895 7.28795C22.8731 7.42796 22.9147 7.57497 22.9141 7.72898V17.8517C22.9141 18.1738 22.7665 18.4188 22.4713 18.5868C22.1762 18.7548 21.8692 18.7618 21.5504 18.6078C20.9898 18.3278 20.4028 18.1108 19.7895 17.9568C19.1762 17.8027 18.551 17.7257 17.9141 17.7257C17.2322 17.7257 16.5656 17.8064 15.9141 17.9677C15.2625 18.129 14.6413 18.3703 14.0504 18.6918C13.8838 18.7758 13.7059 18.8425 13.5168 18.8917C13.3277 18.941 13.1268 18.9654 12.9141 18.9648ZM14.7322 9.97615C14.7322 9.85014 14.7816 9.72077 14.8804 9.58804C14.9792 9.45531 15.0889 9.36767 15.2095 9.3251C15.6489 9.18509 16.0883 9.08008 16.5277 9.01008C16.9671 8.94007 17.4292 8.90507 17.9141 8.90507C18.2171 8.90507 18.5165 8.92271 18.8122 8.95799C19.108 8.99328 19.3995 9.03864 19.6868 9.09408C19.8231 9.12209 19.9407 9.19209 20.0395 9.3041C20.1383 9.41611 20.1874 9.54212 20.1868 9.68213C20.1868 9.92015 20.1035 10.0952 19.9368 10.2072C19.7701 10.3192 19.558 10.3472 19.3004 10.2912C19.0883 10.2492 18.865 10.2178 18.6304 10.1971C18.3959 10.1764 18.1571 10.1657 17.9141 10.1652C17.5201 10.1652 17.1338 10.2002 16.755 10.2702C16.3762 10.3402 16.0125 10.4312 15.6641 10.5432C15.3913 10.6412 15.168 10.6342 14.9941 10.5222C14.8201 10.4102 14.7328 10.2282 14.7322 9.97615ZM14.7322 14.5965C14.7322 14.4705 14.7816 14.3411 14.8804 14.2084C14.9792 14.0757 15.0889 13.988 15.2095 13.9455C15.6489 13.8054 16.0883 13.7004 16.5277 13.6304C16.9671 13.5604 17.4292 13.5254 17.9141 13.5254C18.2171 13.5254 18.5165 13.5431 18.8122 13.5783C19.108 13.6136 19.3995 13.659 19.6868 13.7144C19.8231 13.7424 19.9407 13.8124 20.0395 13.9245C20.1383 14.0365 20.1874 14.1625 20.1868 14.3025C20.1868 14.5405 20.1035 14.7155 19.9368 14.8275C19.7701 14.9395 19.558 14.9675 19.3004 14.9115C19.0883 14.8695 18.865 14.8382 18.6304 14.8174C18.3959 14.7967 18.1571 14.7861 17.9141 14.7855C17.5201 14.7855 17.1338 14.8172 16.755 14.8804C16.3762 14.9437 16.0125 15.0311 15.6641 15.1425C15.3913 15.2406 15.168 15.2372 14.9941 15.1325C14.8201 15.0277 14.7328 14.8491 14.7322 14.5965ZM14.7322 12.2863C14.7322 12.1603 14.7816 12.0309 14.8804 11.8982C14.9792 11.7655 15.0889 11.6778 15.2095 11.6353C15.6489 11.4953 16.0883 11.3903 16.5277 11.3203C16.9671 11.2502 17.4292 11.2152 17.9141 11.2152C18.2171 11.2152 18.5165 11.2329 18.8122 11.2682C19.108 11.3035 19.3995 11.3488 19.6868 11.4043C19.8231 11.4323 19.9407 11.5023 20.0395 11.6143C20.1383 11.7263 20.1874 11.8523 20.1868 11.9923C20.1868 12.2303 20.1035 12.4053 19.9368 12.5173C19.7701 12.6294 19.558 12.6574 19.3004 12.6014C19.0883 12.5593 18.865 12.528 18.6304 12.5073C18.3959 12.4865 18.1571 12.4759 17.9141 12.4753C17.5201 12.4753 17.1338 12.5103 16.755 12.5803C16.3762 12.6504 16.0125 12.7414 15.6641 12.8534C15.3913 12.9514 15.168 12.9444 14.9941 12.8324C14.8201 12.7204 14.7328 12.5383 14.7322 12.2863Z" fill="#3DC8B2"/>
</g>
<defs>
<clipPath id="clip0_417_24653">
<rect width="24" height="24" fill="white" transform="translate(0.867188 0.492188)"/>
</clipPath>
</defs>
</svg>
