<svg width="25" height="25" viewBox="0 0 25 25" fill="none" xmlns="http://www.w3.org/2000/svg">
<g clip-path="url(#clip0_2649_10573)">
<path d="M20.8688 22.4922H3.69043C3.60272 22.4922 3.53125 22.4199 3.53125 22.3311C3.53125 22.2423 3.60272 22.1699 3.69043 22.1699H20.8721C20.9598 22.1699 21.0312 22.2423 21.0312 22.3311C21.0312 22.4199 20.9598 22.4922 20.8688 22.4922Z" fill="#282828"/>
<path d="M7.74422 16.323H4.57687C4.52164 16.323 4.46967 16.2966 4.44043 16.2506L3.98563 15.5665C3.96939 15.5435 3.96289 15.5205 3.96289 15.4941V14.4318C3.96289 14.3529 4.03436 14.2871 4.12207 14.2871C4.20978 14.2871 4.28125 14.3529 4.28125 14.4318V15.4547L4.66783 16.0335H7.65326L8.03983 15.4547V14.4318C8.03983 14.3529 8.1113 14.2871 8.19901 14.2871C8.28673 14.2871 8.35819 14.3529 8.35819 14.4318V15.4941C8.35819 15.5205 8.3517 15.5468 8.33545 15.5665L7.88066 16.2506C7.85142 16.2934 7.79944 16.323 7.74422 16.323Z" fill="#282828"/>
<path d="M7.37416 11.0463H7.35142C6.56202 10.9345 5.76287 10.9345 4.97022 11.0463C4.9085 11.0562 4.84678 11.0266 4.81429 10.9739L4.44396 10.3918C4.42771 10.3655 4.41797 10.3359 4.41797 10.303V9.66164C4.41797 9.586 4.46995 9.52022 4.54466 9.50377C5.61669 9.26697 6.70496 9.26697 7.78023 9.50377C7.85495 9.52022 7.90692 9.586 7.90692 9.66164V10.303C7.90692 10.3326 7.89718 10.3655 7.88093 10.3918L7.5106 10.9739C7.47811 11.02 7.42614 11.0463 7.37416 11.0463ZM4.73633 10.2569L5.02545 10.7108C5.77912 10.6154 6.53928 10.6154 7.2897 10.7108L7.57882 10.2569V9.79649C6.63349 9.60573 5.67841 9.60573 4.73308 9.79649V10.2569H4.73633Z" fill="#282828"/>
<path d="M8.19901 14.5606H4.12207C4.03436 14.5606 3.96289 14.4882 3.96289 14.3994C3.96289 14.3106 4.03436 14.2383 4.12207 14.2383H8.19901C8.28673 14.2383 8.35819 14.3106 8.35819 14.3994C8.35819 14.4882 8.28673 14.5606 8.19901 14.5606Z" fill="#282828"/>
<path d="M4.58105 22.4933C4.49334 22.4933 4.42188 22.421 4.42188 22.3322V16.1621C4.42188 16.0733 4.49334 16.001 4.58105 16.001C4.66877 16.001 4.74023 16.0733 4.74023 16.1621V22.3322C4.74023 22.421 4.66877 22.4933 4.58105 22.4933Z" fill="#282828"/>
<path d="M7.74902 22.4933C7.66131 22.4933 7.58984 22.421 7.58984 22.3322V16.1621C7.58984 16.0733 7.66131 16.001 7.74902 16.001C7.83673 16.001 7.9082 16.0733 7.9082 16.1621V22.3322C7.9082 22.421 7.83673 22.4933 7.74902 22.4933Z" fill="#282828"/>
<path d="M7.21606 7.25257H7.19332C6.50787 7.15719 5.81593 7.15719 5.13048 7.25257C5.06876 7.26244 5.00703 7.23284 4.97455 7.18022L4.65294 6.67372C4.6367 6.64741 4.62695 6.61781 4.62695 6.58492V6.02909C4.62695 5.95345 4.67893 5.88767 4.75365 5.87122C5.68923 5.66402 6.63781 5.66402 7.57015 5.87122C7.64487 5.88767 7.69684 5.95345 7.69684 6.02909V6.58492C7.69684 6.61452 7.6871 6.64741 7.67085 6.67372L7.34925 7.17693C7.32001 7.22626 7.26803 7.25257 7.21606 7.25257ZM4.94856 6.53888L5.18895 6.9171C5.83542 6.83488 6.48838 6.83488 7.13484 6.9171L7.37524 6.53888V6.16065C6.56959 5.99949 5.75096 5.99949 4.94531 6.16065V6.53888H4.94856Z" fill="#282828"/>
<path d="M6.95217 6.09447C6.86446 6.09447 6.79299 6.02212 6.79299 5.93331V4.57827C6.79299 4.40725 6.72802 4.24609 6.60782 4.12111C6.48762 4.00271 6.32844 3.93693 6.16277 3.93693C5.81192 3.93693 5.5293 4.22636 5.5293 4.57827V5.93003C5.5293 6.01883 5.45783 6.09118 5.37012 6.09118C5.28241 6.09118 5.21094 6.01883 5.21094 5.93003V4.57827C5.21094 4.04547 5.63975 3.61133 6.16601 3.61133C6.41615 3.61133 6.65655 3.71 6.83847 3.89089C7.02039 4.07836 7.11784 4.32174 7.11784 4.57827V5.93003C7.11459 6.02212 7.04313 6.09447 6.95217 6.09447Z" fill="#282828"/>
<path d="M6.54369 4.03425C6.45597 4.03425 6.38451 3.9619 6.38451 3.87309V3.46198C6.38451 3.34029 6.28705 3.23833 6.1636 3.23833C6.04016 3.23833 5.93945 3.337 5.93945 3.46198V3.87309C5.93945 3.9619 5.86798 4.03425 5.78027 4.03425C5.69256 4.03425 5.62109 3.9619 5.62109 3.87309V3.46198C5.62109 3.1594 5.86474 2.91602 6.1636 2.91602C6.46247 2.91602 6.70286 3.16269 6.70286 3.46198V3.87309C6.70286 3.9619 6.6314 4.03425 6.54369 4.03425Z" fill="#282828"/>
<path d="M7.37598 14.5595C7.28827 14.5595 7.2168 14.4871 7.2168 14.3983V10.8858C7.2168 10.797 7.28827 10.7246 7.37598 10.7246C7.46369 10.7246 7.53516 10.797 7.53516 10.8858V14.3983C7.53516 14.4871 7.46369 14.5595 7.37598 14.5595Z" fill="#282828"/>
<path d="M4.94824 14.5595C4.86053 14.5595 4.78906 14.4871 4.78906 14.3983V10.8858C4.78906 10.797 4.86053 10.7246 4.94824 10.7246C5.03595 10.7246 5.10742 10.797 5.10742 10.8858V14.3983C5.11067 14.4871 5.0392 14.5595 4.94824 14.5595Z" fill="#282828"/>
<path d="M7.21582 9.72199C7.12811 9.72199 7.05664 9.64963 7.05664 9.56083V7.09085C7.05664 7.00204 7.12811 6.92969 7.21582 6.92969C7.30353 6.92969 7.375 7.00204 7.375 7.09085V9.56083C7.375 9.64963 7.30353 9.72199 7.21582 9.72199Z" fill="#282828"/>
<path d="M5.1123 9.72857C5.02459 9.72857 4.95312 9.65621 4.95312 9.56741V7.09085C4.95312 7.00204 5.02459 6.92969 5.1123 6.92969C5.20002 6.92969 5.27148 7.00204 5.27148 7.09085V9.56741C5.27148 9.65621 5.20002 9.72857 5.1123 9.72857Z" fill="#282828"/>
<path d="M19.1304 19.129H8.5791C8.49139 19.129 8.41992 19.0566 8.41992 18.9678C8.41992 18.879 8.49139 18.8066 8.5791 18.8066H19.1304C19.2181 18.8066 19.2896 18.879 19.2896 18.9678C19.2896 19.0566 19.2181 19.129 19.1304 19.129Z" fill="#282828"/>
<path d="M19.4611 20.7862H8.24707C8.15936 20.7862 8.08789 20.7138 8.08789 20.625C8.08789 20.5362 8.15936 20.4639 8.24707 20.4639H19.4611C19.5488 20.4639 19.6203 20.5362 19.6203 20.625C19.6203 20.7138 19.5488 20.7862 19.4611 20.7862Z" fill="#282828"/>
<path d="M19.9649 22.492C19.8772 22.492 19.8057 22.4197 19.8057 22.3309V21.0252L19.3802 20.7621C19.3314 20.7325 19.3022 20.6798 19.3022 20.6239V19.3774L19.0163 19.0814C18.9871 19.0518 18.9708 19.0123 18.9708 18.9696L18.9611 17.9007C18.9708 14.5427 16.0536 12.9311 14.8094 12.2404C14.4911 12.0628 14.3319 11.974 14.2604 11.8918C14.2019 11.826 14.1532 11.7405 14.1012 11.655C14.0363 11.5432 13.9648 11.4149 13.8543 11.3031C13.7439 11.4149 13.6724 11.5399 13.6075 11.655C13.5587 11.7438 13.51 11.826 13.4483 11.8918C13.3736 11.974 13.2176 12.0628 12.8993 12.2404C11.6551 12.9278 8.74111 14.5427 8.74761 17.8974L8.73786 18.9663C8.73786 19.0091 8.72162 19.0485 8.69238 19.0781L8.40651 19.3741V20.6206C8.40651 20.6765 8.37727 20.7292 8.33179 20.7588L7.82827 21.0778C7.75355 21.1238 7.65609 21.1041 7.60736 21.0252C7.56188 20.9495 7.58462 20.8509 7.65934 20.8015L8.08815 20.5318V19.3083C8.08815 19.2656 8.10439 19.2261 8.13363 19.1965L8.41951 18.8972L8.42925 17.8941C8.41951 14.3486 11.4504 12.668 12.7466 11.9543C12.9545 11.8392 13.1721 11.7175 13.2144 11.6714C13.2501 11.6287 13.2891 11.5662 13.3313 11.4873C13.4223 11.3261 13.5392 11.1255 13.7569 10.9545C13.8154 10.9084 13.8933 10.9084 13.9518 10.9545C14.1695 11.1255 14.2864 11.3261 14.3774 11.4873C14.4196 11.5629 14.4586 11.6287 14.4943 11.6682C14.5365 11.7142 14.751 11.8326 14.9621 11.951C16.255 12.668 19.2892 14.3453 19.2794 17.8941L19.2892 18.8939L19.5751 19.1932C19.6043 19.2228 19.6205 19.2656 19.6205 19.3051V20.5252L20.0461 20.7884C20.0948 20.818 20.1241 20.8706 20.1241 20.9265V22.3243C20.1241 22.4197 20.0526 22.492 19.9649 22.492Z" fill="#223F7A"/>
<path d="M13.8732 12.0612C13.6718 12.0612 13.4672 12.0316 13.2625 11.9724C13.1781 11.9494 13.1293 11.8573 13.1521 11.7718C13.1748 11.6863 13.2658 11.6369 13.3502 11.6599C13.6978 11.7619 14.0422 11.7619 14.3735 11.6632C14.458 11.6369 14.5457 11.6863 14.5717 11.7718C14.5977 11.8573 14.5489 11.9461 14.4645 11.9724C14.2663 12.0316 14.0714 12.0612 13.8732 12.0612Z" fill="#282828"/>
<path d="M7.7436 17.4606C7.71436 17.4606 7.68837 17.454 7.66238 17.4376L7.21733 17.1679L6.77228 17.4376C6.7203 17.4672 6.65858 17.4672 6.6066 17.4376L6.16155 17.1679L5.7165 17.4376C5.66452 17.4672 5.6028 17.4672 5.55082 17.4376L5.10577 17.1646L4.65747 17.4343C4.58275 17.4803 4.48204 17.454 4.43656 17.3784C4.39108 17.3027 4.41707 17.2007 4.49179 17.158L5.0213 16.8357C5.07328 16.8061 5.135 16.8061 5.18698 16.8357L5.63203 17.1054L6.07709 16.8357C6.12906 16.8061 6.19079 16.8061 6.24276 16.8357L6.68782 17.1054L7.13287 16.8357C7.18485 16.8061 7.24657 16.8061 7.29855 16.8357L7.82481 17.158C7.89953 17.204 7.92552 17.3027 7.88004 17.3816C7.8508 17.431 7.79558 17.4606 7.7436 17.4606Z" fill="#223F7A"/>
<path d="M7.7436 18.4465C7.71436 18.4465 7.68837 18.44 7.66238 18.4235L7.21733 18.1538L6.77228 18.4235C6.7203 18.4531 6.65858 18.4531 6.6066 18.4235L6.16155 18.1538L5.7165 18.4235C5.66452 18.4531 5.6028 18.4531 5.55082 18.4235L5.10577 18.1538L4.65747 18.4235C4.58275 18.4696 4.48204 18.4433 4.43656 18.3676C4.39108 18.292 4.41707 18.19 4.49179 18.144L5.0213 17.8249C5.07328 17.7953 5.135 17.7953 5.18698 17.8249L5.63203 18.0946L6.07709 17.8249C6.12906 17.7953 6.19079 17.7953 6.24276 17.8249L6.68782 18.0946L7.13287 17.8249C7.18485 17.7953 7.24657 17.7953 7.29855 17.8249L7.82481 18.144C7.89953 18.19 7.92552 18.2887 7.88004 18.3676C7.8508 18.4202 7.79558 18.4465 7.7436 18.4465Z" fill="#223F7A"/>
<path d="M7.7436 19.4364C7.71436 19.4364 7.68837 19.4298 7.66238 19.4134L7.21733 19.1437L6.77228 19.4134C6.7203 19.443 6.65858 19.443 6.6066 19.4134L6.16155 19.1437L5.7165 19.4134C5.66452 19.443 5.6028 19.443 5.55082 19.4134L5.10577 19.1437L4.65747 19.4134C4.58275 19.4594 4.48204 19.4364 4.43656 19.3575C4.39108 19.2818 4.41707 19.1799 4.49179 19.1371L5.0213 18.8181C5.07328 18.7885 5.135 18.7885 5.18698 18.8181L5.63203 19.0878L6.07709 18.8181C6.12906 18.7885 6.19079 18.7885 6.24276 18.8181L6.68782 19.0878L7.13287 18.8181C7.18485 18.7885 7.24657 18.7885 7.29855 18.8181L7.82481 19.1371C7.89953 19.1832 7.92552 19.2818 7.88004 19.3608C7.8508 19.4068 7.79558 19.4364 7.7436 19.4364Z" fill="#223F7A"/>
<path d="M4.57691 20.428C4.52168 20.428 4.46971 20.3984 4.44047 20.3491C4.39499 20.2734 4.42098 20.1715 4.4957 20.1254L5.02521 19.8064C5.07719 19.7768 5.13891 19.7768 5.19089 19.8064L5.63594 20.0761L6.08099 19.8064C6.13297 19.7768 6.19469 19.7768 6.24667 19.8064L6.69172 20.0761L7.13678 19.8064C7.18875 19.7768 7.25048 19.7768 7.30245 19.8064L7.82872 20.1254C7.90344 20.1715 7.92942 20.2701 7.88394 20.3491C7.83846 20.4247 7.74101 20.451 7.66304 20.405L7.21799 20.1353L6.77294 20.405C6.72096 20.4346 6.65924 20.4346 6.60726 20.405L6.16221 20.1353L5.71715 20.405C5.66518 20.4346 5.60345 20.4346 5.55148 20.405L5.10642 20.1353L4.65812 20.405C4.63538 20.4181 4.60615 20.428 4.57691 20.428Z" fill="#223F7A"/>
<path d="M4.57691 21.4133C4.52168 21.4133 4.46971 21.3837 4.44047 21.3344C4.39499 21.2588 4.42098 21.1568 4.4957 21.1108L5.02521 20.7917C5.07719 20.7621 5.13891 20.7621 5.19089 20.7917L5.63594 21.0614L6.08099 20.7917C6.13297 20.7621 6.19469 20.7621 6.24667 20.7917L6.69172 21.0614L7.13678 20.7917C7.18875 20.7621 7.25048 20.7621 7.30245 20.7917L7.82872 21.1108C7.90344 21.1568 7.92942 21.2555 7.88394 21.3344C7.83846 21.4101 7.74101 21.4364 7.66304 21.3903L7.21799 21.1206L6.77294 21.3903C6.72096 21.4199 6.65924 21.4199 6.60726 21.3903L6.16221 21.1206L5.71715 21.3903C5.66518 21.4199 5.60345 21.4199 5.55148 21.3903L5.10642 21.1206L4.65812 21.3903C4.63538 21.4068 4.60615 21.4133 4.57691 21.4133Z" fill="#223F7A"/>
<path d="M9.53948 22.493C9.45177 22.493 9.3803 22.4206 9.3803 22.3318V21.6872C9.3803 21.4964 9.24711 21.3418 9.08468 21.3418C8.92225 21.3418 8.78906 21.4964 8.78906 21.6872V22.3318C8.78906 22.4206 8.71759 22.493 8.62988 22.493C8.54217 22.493 8.4707 22.4206 8.4707 22.3318V21.6872C8.4707 21.3188 8.74683 21.0195 9.08468 21.0195C9.42253 21.0195 9.69866 21.3188 9.69866 21.6872V22.3318C9.69866 22.4206 9.62719 22.493 9.53948 22.493Z" fill="#2223F7A"/>
<path d="M11.4535 22.493C11.3658 22.493 11.2944 22.4206 11.2944 22.3318V21.6872C11.2944 21.4964 11.1612 21.3418 10.9987 21.3418C10.8363 21.3418 10.7031 21.4964 10.7031 21.6872V22.3318C10.7031 22.4206 10.6317 22.493 10.5439 22.493C10.4562 22.493 10.3848 22.4206 10.3848 22.3318V21.6872C10.3848 21.3188 10.6609 21.0195 10.9987 21.0195C11.3366 21.0195 11.6127 21.3188 11.6127 21.6872V22.3318C11.616 22.4206 11.5445 22.493 11.4535 22.493Z" fill="#2223F7A"/>
<path d="M13.3696 22.493C13.2818 22.493 13.2104 22.4206 13.2104 22.3318V21.6872C13.2104 21.4964 13.0772 21.3418 12.9148 21.3418C12.7523 21.3418 12.6191 21.4964 12.6191 21.6872V22.3318C12.6191 22.4206 12.5477 22.493 12.46 22.493C12.3722 22.493 12.3008 22.4206 12.3008 22.3318V21.6872C12.3008 21.3188 12.5769 21.0195 12.9148 21.0195C13.2526 21.0195 13.5287 21.3188 13.5287 21.6872V22.3318C13.5287 22.4206 13.4573 22.493 13.3696 22.493Z" fill="#223F7A"/>
<path d="M15.2856 22.493C15.1979 22.493 15.1264 22.4206 15.1264 22.3318V21.6872C15.1264 21.4964 14.9932 21.3418 14.8308 21.3418C14.6683 21.3418 14.5352 21.4964 14.5352 21.6872V22.3318C14.5352 22.4206 14.4637 22.493 14.376 22.493C14.2883 22.493 14.2168 22.4206 14.2168 22.3318V21.6872C14.2168 21.3188 14.4929 21.0195 14.8308 21.0195C15.1686 21.0195 15.4448 21.3188 15.4448 21.6872V22.3318C15.4448 22.4206 15.3733 22.493 15.2856 22.493Z" fill="#223F7A"/>
<path d="M17.2016 22.493C17.1139 22.493 17.0424 22.4206 17.0424 22.3318V21.6872C17.0424 21.4964 16.9092 21.3418 16.7468 21.3418C16.5844 21.3418 16.4512 21.4964 16.4512 21.6872V22.3318C16.4512 22.4206 16.3797 22.493 16.292 22.493C16.2043 22.493 16.1328 22.4206 16.1328 22.3318V21.6872C16.1328 21.3188 16.4089 21.0195 16.7468 21.0195C17.0846 21.0195 17.3608 21.3188 17.3608 21.6872V22.3318C17.3608 22.4206 17.2893 22.493 17.2016 22.493Z" fill="#223F7A"/>
<path d="M19.1157 22.493C19.0279 22.493 18.9565 22.4206 18.9565 22.3318V21.6872C18.9565 21.4964 18.8233 21.3418 18.6609 21.3418C18.4984 21.3418 18.3652 21.4964 18.3652 21.6872V22.3318C18.3652 22.4206 18.2938 22.493 18.2061 22.493C18.1183 22.493 18.0469 22.4206 18.0469 22.3318V21.6872C18.0469 21.3188 18.323 21.0195 18.6609 21.0195C18.9987 21.0195 19.2748 21.3188 19.2748 21.6872V22.3318C19.2781 22.4206 19.2066 22.493 19.1157 22.493Z" fill="#223F7A"/>
<path d="M10.339 20.7255C10.2513 20.7255 10.1798 20.6531 10.1798 20.5643V19.8737C10.1798 19.7059 10.0499 19.5678 9.89068 19.5678C9.7315 19.5678 9.60156 19.7059 9.60156 19.8737V20.5643C9.60156 20.6531 9.53009 20.7255 9.44238 20.7255C9.35467 20.7255 9.2832 20.6531 9.2832 20.5643V19.8737C9.2832 19.525 9.55608 19.2422 9.89393 19.2422C10.2318 19.2422 10.5047 19.525 10.5047 19.8737V20.5643C10.4982 20.6531 10.4267 20.7255 10.339 20.7255Z" fill="#223F7A"/>
<path d="M12.2355 20.7255C12.1478 20.7255 12.0763 20.6531 12.0763 20.5643V19.8737C12.0763 19.7059 11.9463 19.5678 11.7872 19.5678C11.628 19.5678 11.498 19.7059 11.498 19.8737V20.5643C11.498 20.6531 11.4266 20.7255 11.3389 20.7255C11.2512 20.7255 11.1797 20.6531 11.1797 20.5643V19.8737C11.1797 19.525 11.4526 19.2422 11.7904 19.2422C12.1283 19.2422 12.4011 19.525 12.4011 19.8737V20.5643C12.3946 20.6531 12.3232 20.7255 12.2355 20.7255Z" fill="#223F7A"/>
<path d="M14.1339 20.7255C14.0462 20.7255 13.9747 20.6531 13.9747 20.5643V19.8737C13.9747 19.7059 13.8448 19.5678 13.6856 19.5678C13.5264 19.5678 13.3965 19.7059 13.3965 19.8737V20.5643C13.3965 20.6531 13.325 20.7255 13.2373 20.7255C13.1496 20.7255 13.0781 20.6531 13.0781 20.5643V19.8737C13.0781 19.525 13.351 19.2422 13.6889 19.2422C14.0267 19.2422 14.2996 19.525 14.2996 19.8737V20.5643C14.2931 20.6531 14.2216 20.7255 14.1339 20.7255Z" fill="#223F7A"/>
<path d="M16.0284 20.7255C15.9407 20.7255 15.8693 20.6531 15.8693 20.5643V19.8737C15.8693 19.7059 15.7393 19.5678 15.5801 19.5678C15.421 19.5678 15.291 19.7059 15.291 19.8737V20.5643C15.291 20.6531 15.2195 20.7255 15.1318 20.7255C15.0441 20.7255 14.9727 20.6531 14.9727 20.5643V19.8737C14.9727 19.525 15.2455 19.2422 15.5834 19.2422C15.9212 19.2422 16.1941 19.525 16.1941 19.8737V20.5643C16.1876 20.6531 16.1161 20.7255 16.0284 20.7255Z" fill="#223F7A"/>
<path d="M17.9269 20.7255C17.8392 20.7255 17.7677 20.6531 17.7677 20.5643V19.8737C17.7677 19.7059 17.6378 19.5678 17.4786 19.5678C17.3194 19.5678 17.1895 19.7059 17.1895 19.8737V20.5643C17.1895 20.6531 17.118 20.7255 17.0303 20.7255C16.9426 20.7255 16.8711 20.6531 16.8711 20.5643V19.8737C16.8711 19.525 17.144 19.2422 17.4818 19.2422C17.8197 19.2422 18.0926 19.525 18.0926 19.8737V20.5643C18.0861 20.6531 18.0146 20.7255 17.9269 20.7255Z" fill="#223F7A"/>
<path d="M6.16243 3.08091C6.07147 3.08091 6 3.00855 6 2.91646V2.65663C6 2.56454 6.07147 2.49219 6.16243 2.49219C6.25339 2.49219 6.32486 2.56454 6.32486 2.65663V2.91646C6.32486 3.00855 6.25339 3.08091 6.16243 3.08091Z" fill="#223F7A"/>
<path d="M13.8558 11.1364C13.7648 11.1364 13.6934 11.0641 13.6934 10.972V10.4096C13.6934 10.3175 13.7648 10.2451 13.8558 10.2451C13.9467 10.2451 14.0182 10.3175 14.0182 10.4096V10.972C14.0182 11.0641 13.9467 11.1364 13.8558 11.1364Z" fill="#223F7A"/>
<path d="M8.58756 18.9672H19.1291C19.1291 18.9672 20.0452 14.2279 14.461 11.9717L13.8535 11.0508L13.142 11.9487C13.142 11.9487 8.08728 13.8266 8.58756 18.9672Z" fill="#223F7A"/>
<path d="M8.07972 20.625H19.349C19.6024 20.625 19.8103 20.8355 19.8103 21.092V22.1708H7.9043V20.8026C7.9043 20.7039 7.98226 20.625 8.07972 20.625Z" fill="#223F7A"/>
<path d="M7.58271 16.3232H4.73047V22.171H7.58271V16.3232Z" fill="#282828"/>
<path d="M7.21574 10.9219H5.10742V14.2897H7.21574V10.9219Z" fill="#282828"/>
<path d="M7.21574 7.10059H5.10742V9.41271H7.21574V7.10059Z" fill="#282828"/>
<path d="M6.13154 3.79785H6.14778C6.50512 3.79785 6.79424 4.09057 6.79424 4.45235V5.84357H5.50781V4.42933C5.50781 4.0807 5.78719 3.79785 6.13154 3.79785Z" fill="#223F7A"/>
</g>
<defs>
<clipPath id="clip0_2649_10573">
<rect width="17.5" height="20" fill="white" transform="translate(3.53125 2.49219)"/>
</clipPath>
</defs>
</svg>
