<svg width="25" height="25" viewBox="0 0 25 25" fill="none" xmlns="http://www.w3.org/2000/svg">
<g clip-path="url(#clip0_522_1705)">
<path d="M4.19531 5.8715C4.19531 5.10973 4.81285 4.49219 5.57462 4.49219C6.33639 4.49219 6.95393 5.10973 6.95393 5.8715V19.1129C6.95393 19.8746 6.33639 20.4922 5.57462 20.4922C4.81285 20.4922 4.19531 19.8746 4.19531 19.1129V5.8715ZM10.2334 11.6662C9.65163 12.0632 9.65163 12.9212 10.2334 13.3182L19.1834 19.4252C19.8472 19.8782 20.747 19.4028 20.747 18.5992V6.38516C20.747 5.58158 19.8472 5.10621 19.1834 5.55914L10.2334 11.6662ZM17.9884 14.7775C17.9884 15.0186 17.7184 15.1612 17.5193 15.0252L14.172 12.74C13.9975 12.6208 13.9975 12.3635 14.172 12.2444L17.5193 9.95916C17.7184 9.82321 17.9884 9.96581 17.9884 10.2069V14.7775Z" fill="#C7C7C7"/>
</g>
<defs>
<clipPath id="clip0_522_1705">
<rect width="24" height="24" fill="white" transform="translate(0.695312 0.492188)"/>
</clipPath>
</defs>
</svg>
