<svg width="17" height="17" viewBox="0 0 17 17" fill="none" xmlns="http://www.w3.org/2000/svg">
<path d="M14.9276 8.29443L9.92771 13.2943C9.85778 13.3643 9.76866 13.412 9.67162 13.4313C9.57458 13.4506 9.47398 13.4407 9.38258 13.4029C9.29117 13.365 9.21305 13.3008 9.15812 13.2185C9.10318 13.1362 9.0739 13.0395 9.07398 12.9406V10.455C5.50532 10.6575 3.05851 12.9718 2.37165 13.7049C2.26379 13.8201 2.12236 13.8983 1.96747 13.9285C1.81258 13.9586 1.65213 13.9391 1.50896 13.8728C1.36578 13.8065 1.24717 13.6967 1.17001 13.559C1.09284 13.4214 1.06106 13.2629 1.07918 13.1062C1.31105 11.09 2.4154 9.15065 4.1891 7.64569C5.66219 6.39572 7.45277 5.60262 9.07398 5.46387V2.94081C9.0739 2.84187 9.10318 2.74512 9.15812 2.66283C9.21305 2.58053 9.29117 2.51639 9.38258 2.47851C9.47398 2.44064 9.57458 2.43073 9.67162 2.45006C9.76866 2.46938 9.85778 2.51707 9.92771 2.58707L14.9276 7.58694C14.9741 7.63338 15.0109 7.68852 15.0361 7.74922C15.0613 7.80992 15.0742 7.87498 15.0742 7.94068C15.0742 8.00639 15.0613 8.07145 15.0361 8.13215C15.0109 8.19285 14.9741 8.24799 14.9276 8.29443Z" fill="#3DC8B2"/>
</svg>
