<svg width="25" height="25" viewBox="0 0 25 25" fill="none" xmlns="http://www.w3.org/2000/svg">
<g clip-path="url(#clip0_522_1709)">
<path d="M21.332 5.8715C21.332 5.10973 20.7145 4.49219 19.9527 4.49219C19.1909 4.49219 18.5734 5.10973 18.5734 5.8715V19.1129C18.5734 19.8746 19.1909 20.4922 19.9527 20.4922C20.7145 20.4922 21.332 19.8746 21.332 19.1129V5.8715ZM15.2939 11.6662C15.8757 12.0632 15.8757 12.9212 15.2939 13.3182L6.34394 19.4252C5.68016 19.8782 4.78031 19.4028 4.78031 18.5992V6.38516C4.78031 5.58158 5.68017 5.10621 6.34395 5.55914L15.2939 11.6662ZM7.53893 14.7775C7.53893 15.0186 7.80896 15.1612 8.00808 15.0252L11.3553 12.74C11.5298 12.6208 11.5298 12.3635 11.3553 12.2444L8.00808 9.95916C7.80896 9.82321 7.53893 9.96581 7.53893 10.2069V14.7775Z" fill="#F4F4F4"/>
</g>
<defs>
<clipPath id="clip0_522_1709">
<rect width="24" height="24" fill="white" transform="translate(0.28125 0.492188)"/>
</clipPath>
</defs>
</svg>
