<svg width="25" height="25" viewBox="0 0 25 25" fill="none" xmlns="http://www.w3.org/2000/svg">
<path d="M21.2415 5.10313L12.9966 3.50626C12.9019 3.4875 12.8045 3.4875 12.7099 3.50626L4.46497 5.10313C4.2944 5.13799 4.14127 5.23121 4.03185 5.3668C3.92244 5.50239 3.86357 5.67189 3.86534 5.84621V19.1316C3.86237 19.309 3.92229 19.4818 4.03447 19.6192C4.14665 19.7566 4.30382 19.8498 4.47809 19.8822L12.723 21.479C12.7706 21.4881 12.8189 21.4925 12.8673 21.4922C12.9157 21.4924 12.964 21.488 13.0116 21.479L21.2565 19.8822C21.4308 19.8498 21.588 19.7566 21.7001 19.6192C21.8123 19.4818 21.8722 19.309 21.8693 19.1316V5.84621C21.8698 5.66786 21.807 5.49513 21.692 5.35897C21.5769 5.22281 21.4173 5.13211 21.2415 5.10313ZM14.1827 19.1541V10.1471L17.5013 10.5073V18.5199L14.1827 19.1541ZM21.4795 10.8977V12.2281L19.0135 11.9654V10.6425L21.4795 10.8977ZM11.535 10.1377V11.4662L6.51309 11.9954V10.6668L11.535 10.1377ZM5.00089 10.8245V12.1549L4.24011 12.2356V10.9052L5.00089 10.8245ZM21.4795 9.14691L12.8842 8.03604H12.8354L4.24011 9.14691V7.8165L12.8598 6.70375L21.4795 7.8165V9.14691ZM21.4795 19.1316C21.4809 19.2207 21.4505 19.3074 21.3939 19.3762C21.3372 19.445 21.258 19.4913 21.1703 19.5069L12.9254 21.1037C12.8771 21.1134 12.8275 21.1134 12.7792 21.1037L4.5343 19.5069C4.44942 19.4882 4.37365 19.4405 4.31999 19.3721C4.26632 19.3036 4.23808 19.2186 4.24011 19.1316V18.1183L12.8242 19.7808C12.8476 19.7865 12.872 19.7865 12.8954 19.7808L14.0328 19.5594L17.7318 18.8482L21.4795 18.1183V19.1316Z" fill="#223F7A"/>
</svg>
