<svg width="25" height="25" viewBox="0 0 25 25" fill="none" xmlns="http://www.w3.org/2000/svg">
<g clip-path="url(#clip0_417_24649)">
<path fill-rule="evenodd" clip-rule="evenodd" d="M10.8791 3.75618C10.6799 3.61051 10.4481 3.51585 10.2039 3.48046C9.95964 3.44507 9.71047 3.47004 9.47813 3.55318C8.39175 3.95116 7.38276 4.53483 6.49616 5.27816C6.30832 5.43764 6.16236 5.64068 6.07102 5.86954C5.97968 6.09841 5.94575 6.34615 5.97217 6.59114C6.04717 7.34413 5.91417 8.07113 5.55217 8.69712C5.19118 9.32411 4.62719 9.8031 3.93719 10.1141C3.71154 10.2141 3.51381 10.3678 3.36128 10.5618C3.20875 10.7558 3.10606 10.9842 3.0622 11.2271C2.86468 12.3652 2.86468 13.5289 3.0622 14.667C3.1552 15.204 3.5222 15.593 3.93719 15.781C4.62719 16.091 5.19118 16.571 5.55317 17.197C5.91417 17.824 6.04717 18.55 5.97217 19.303C5.92717 19.755 6.07917 20.267 6.49616 20.616C7.38275 21.3593 8.39174 21.943 9.47813 22.341C9.71032 22.424 9.95932 22.4489 10.2034 22.4135C10.4474 22.3782 10.6791 22.2835 10.8781 22.138C11.4931 21.696 12.1901 21.447 12.9141 21.447C13.6381 21.447 14.3341 21.696 14.9491 22.138C15.3191 22.404 15.8391 22.528 16.35 22.341C17.4364 21.943 18.4454 21.3593 19.332 20.616C19.749 20.267 19.902 19.756 19.856 19.303C19.781 18.55 19.913 17.823 20.276 17.197C20.637 16.57 21.201 16.092 21.891 15.781C22.305 15.594 22.673 15.204 22.766 14.667C22.9634 13.5289 22.9634 12.3652 22.766 11.2271C22.7221 10.9842 22.6194 10.7558 22.4669 10.5618C22.3144 10.3678 22.1166 10.2141 21.891 10.1141C21.201 9.8031 20.637 9.32411 20.275 8.69712C19.913 8.07113 19.781 7.34413 19.856 6.59114C19.8823 6.34615 19.8484 6.09844 19.757 5.86959C19.6657 5.64074 19.5198 5.4377 19.332 5.27816C18.4454 4.53483 17.4364 3.95116 16.35 3.55318C16.1178 3.47021 15.8689 3.44534 15.6248 3.48072C15.3808 3.51611 15.1491 3.61068 14.9501 3.75618C14.3341 4.19717 13.6371 4.44717 12.9141 4.44717C12.1911 4.44717 11.4941 4.19817 10.8791 3.75618ZM9.91412 12.9471C9.91412 12.1514 10.2302 11.3884 10.7928 10.8258C11.3554 10.2632 12.1184 9.9471 12.9141 9.9471C13.7097 9.9471 14.4728 10.2632 15.0354 10.8258C15.598 11.3884 15.914 12.1514 15.914 12.9471C15.914 13.7427 15.598 14.5058 15.0354 15.0684C14.4728 15.631 13.7097 15.947 12.9141 15.947C12.1184 15.947 11.3554 15.631 10.7928 15.0684C10.2302 14.5058 9.91412 13.7427 9.91412 12.9471Z" fill="#3DC8B2"/>
</g>
<defs>
<clipPath id="clip0_417_24649">
<rect width="24" height="24" fill="white" transform="translate(0.867188 0.492188)"/>
</clipPath>
</defs>
</svg>
