<svg width="32" height="32" viewBox="0 0 32 32" fill="none" xmlns="http://www.w3.org/2000/svg">
<path fill-rule="evenodd" clip-rule="evenodd" d="M14.082 2.08199C14.5621 1.58499 15.2046 1.29255 15.8826 1.26236C16.5606 1.23217 17.2248 1.46643 17.7443 1.91891L17.918 2.0834L20.4952 4.75309H24.1386C24.8228 4.75322 25.4816 5.02128 25.9832 5.50358C26.4848 5.98587 26.792 6.64678 26.8433 7.35389L26.8514 7.56476V11.3408L29.4287 14.0119C29.9086 14.5097 30.191 15.1758 30.2201 15.8788C30.2492 16.5818 30.023 17.2706 29.586 17.8091L29.4273 17.9877L26.8501 20.6588V24.4348C26.8503 25.1442 26.5918 25.8274 26.1264 26.3475C25.661 26.8677 25.0232 27.1863 24.3407 27.2395L24.1386 27.2465H20.4966L17.9193 29.9176C17.4391 30.415 16.7964 30.7077 16.1181 30.7379C15.4398 30.7681 14.7752 30.5336 14.2556 30.0807L14.0833 29.9176L11.5061 27.2465H7.86138C7.17696 27.2467 6.51774 26.9788 6.01589 26.4965C5.51403 26.0142 5.20663 25.3531 5.1553 24.6457L5.14852 24.4348V20.6588L2.57129 17.9877C2.09138 17.4899 1.80898 16.8238 1.77984 16.1208C1.75071 15.4178 1.97697 14.729 2.41395 14.1905L2.57129 14.0119L5.14852 11.3408V7.56476C5.14864 6.85565 5.40728 6.17278 5.87263 5.65294C6.33797 5.13311 6.97565 4.8147 7.65792 4.76152L7.86138 4.75309H11.5048L14.082 2.08199Z" fill="#223F7A"/>
</svg>
