<svg width="230" height="230" viewBox="0 0 230 230" fill="none" xmlns="http://www.w3.org/2000/svg">
<circle cx="115.124" cy="115.455" r="108.5" stroke="#40CCA6" stroke-width="12"/>
<path d="M112.078 25.4649L112.058 33.6729L109.574 33.6669L109.605 20.8869L111.585 20.8917L118.17 29.3316L118.191 20.9256L120.675 20.9316L120.644 33.6936L118.574 33.6886L112.078 25.4649Z" fill="#B9B4BA"/>
<path d="M118.501 200.39C118.416 200.308 118.258 200.197 118.027 200.057C117.809 199.917 117.536 199.784 117.21 199.657C116.896 199.531 116.552 199.423 116.178 199.334C115.804 199.233 115.425 199.185 115.041 199.192C114.37 199.204 113.862 199.339 113.518 199.598C113.187 199.856 113.025 200.213 113.034 200.668C113.04 201.016 113.153 201.29 113.372 201.491C113.592 201.691 113.919 201.859 114.354 201.995C114.788 202.131 115.331 202.278 115.982 202.434C116.825 202.623 117.556 202.862 118.173 203.151C118.802 203.428 119.283 203.803 119.615 204.277C119.96 204.739 120.139 205.36 120.153 206.14C120.165 206.824 120.05 207.414 119.806 207.91C119.563 208.395 119.222 208.791 118.784 209.099C118.345 209.407 117.845 209.638 117.284 209.792C116.722 209.934 116.124 210.011 115.488 210.022C114.852 210.033 114.215 209.979 113.576 209.858C112.938 209.738 112.323 209.563 111.731 209.333C111.138 209.092 110.593 208.802 110.095 208.462L111.154 206.301C111.264 206.407 111.459 206.548 111.738 206.723C112.017 206.886 112.356 207.054 112.755 207.227C113.154 207.387 113.589 207.524 114.059 207.635C114.529 207.747 115.004 207.798 115.484 207.79C116.155 207.778 116.663 207.655 117.007 207.42C117.351 207.186 117.519 206.859 117.512 206.439C117.505 206.055 117.361 205.758 117.082 205.547C116.802 205.336 116.415 205.157 115.92 205.009C115.425 204.85 114.84 204.681 114.164 204.501C113.356 204.287 112.68 204.047 112.135 203.781C111.59 203.503 111.182 203.15 110.91 202.723C110.638 202.296 110.497 201.758 110.485 201.11C110.469 200.234 110.66 199.499 111.058 198.904C111.467 198.296 112.023 197.836 112.725 197.524C113.427 197.199 114.211 197.029 115.074 197.013C115.674 197.003 116.239 197.058 116.77 197.181C117.312 197.303 117.819 197.468 118.291 197.676C118.763 197.883 119.187 198.11 119.563 198.355L118.501 200.39Z" fill="#B9B4BA"/>
<path d="M212.241 119.76L212.195 121.938L203.323 121.75L203.594 108.973L212.304 109.157L212.258 111.335L206.031 111.203L205.966 114.28L211.347 114.394L211.304 116.41L205.923 116.296L205.852 119.625L212.241 119.76Z" fill="#B9B4BA"/>
<path d="M23.6499 109.086L25.9537 109.115L27.3588 113.363L28.8875 109.152L31.1733 109.18L28.9049 114.966L30.4741 119.054L34.2155 109.182L36.9153 109.216L31.6443 121.931L29.5025 121.904L27.3195 116.513L25.0208 121.848L22.879 121.822L17.9448 108.979L20.6086 109.012L24.1206 118.975L25.7552 114.927L23.6499 109.086Z" fill="#B9B4BA"/>
<path d="M132.079 47.0211L115.468 42.1366C114.83 41.9545 114.17 41.9545 113.532 42.1366L96.9205 47.0211C95.4745 47.4423 94.4726 48.7972 94.4726 50.3001V72.5591C94.4726 74.1759 95.6225 75.5877 97.2052 75.9179L100.837 76.6579V74.3352V66.7296C100.837 66.1831 101.213 65.7163 101.748 65.6138L107.908 64.3728C108.238 64.3045 108.591 64.3842 108.853 64.6005C109.115 64.8168 109.274 65.147 109.274 65.4886V76.0431V78.3658L113.817 79.288C114.045 79.3336 114.272 79.3563 114.5 79.3563C114.728 79.3563 114.955 79.3336 115.183 79.288L131.795 75.9179C133.377 75.5877 134.527 74.1759 134.527 72.5591V50.3001C134.527 48.7972 133.525 47.4423 132.079 47.0211ZM114.5 58.2701L96.7497 61.8793V59.5567V57.1201V54.7975L114.272 51.2338C114.42 51.1996 114.58 51.1996 114.728 51.2338L132.25 54.7975V57.1201V59.5567V61.8793L114.5 58.2701Z" fill="#3C3C3C"/>
<path d="M114.45 51.1684L96.7413 54.7665L96.6825 61.9988L114.531 58.2778L132.269 61.9051L132.242 54.7699L114.45 51.1684Z" fill="#FECE84"/>
<path d="M108.226 64.0805L101.449 65.5847C100.991 65.6864 100.665 66.0932 100.666 66.5627L100.684 76.6341L109.342 78.3755L109.443 65.0643C109.448 64.4216 108.854 63.9412 108.226 64.0805Z" fill="#666464"/>
</svg>
