<svg width="41" height="38" viewBox="0 0 41 38" fill="none" xmlns="http://www.w3.org/2000/svg">
<path d="M38.4452 5.34126L21.8336 0.456818C21.196 0.274648 20.5356 0.274648 19.898 0.456818L3.28633 5.34126C1.84036 5.76253 0.838419 7.11742 0.838419 8.62033L0.838419 30.8793C0.838419 32.496 1.98837 33.9079 3.57097 34.238L7.203 34.9781V32.6554L7.203 25.0498C7.203 24.5033 7.57872 24.0365 8.11385 23.934L14.2735 22.693C14.6037 22.6247 14.9566 22.7044 15.2185 22.9207C15.4804 23.137 15.6398 23.4672 15.6398 23.8088L15.6398 34.3633V36.686L20.1826 37.6082C20.4104 37.6537 20.6381 37.6765 20.8658 37.6765C21.0935 37.6765 21.3212 37.6537 21.5489 37.6082L38.1606 34.238C39.7432 33.9079 40.8931 32.496 40.8931 30.8793V8.62033C40.8931 7.11742 39.8912 5.76253 38.4452 5.34126ZM20.8658 16.5903L3.11555 20.1995L3.11555 17.8769V15.4403L3.11555 13.1177L20.6381 9.55395C20.7861 9.5198 20.9455 9.5198 21.0935 9.55395L38.616 13.1177V15.4403V17.8769V20.1995L20.8658 16.5903Z" fill="#3C3C3C"/>
<path d="M20.8159 9.48865L3.10706 13.0867L3.04833 20.3191L20.8972 16.598L38.6351 20.2253L38.6081 13.0902L20.8159 9.48865Z" fill="#FECE84"/>
<path d="M14.592 22.4007L7.81478 23.9049C7.35645 24.0066 7.0306 24.4134 7.03145 24.8829L7.04966 34.9543L15.708 36.6957L15.8086 23.3845C15.8135 22.7418 15.2194 22.2614 14.592 22.4007Z" fill="#666464"/>
</svg>
